<svg width="166" height="94" viewBox="0 0 166 94" fill="none" xmlns="http://www.w3.org/2000/svg">
<g id="Astronaut" clip-path="url(#clip0_906_59102)">
<g id="Mask Group">
<mask id="mask0_906_59102" style="mask-type:alpha" maskUnits="userSpaceOnUse" x="55" y="12" width="59" height="60">
<path id="Ellipse 4224" d="M113.44 41.959C113.44 58.3405 100.37 71.6204 84.2481 71.6204C68.1257 71.6204 55.0559 58.3405 55.0559 41.959C55.0559 25.5775 68.1257 12.2976 84.2481 12.2976C100.37 12.2976 113.44 25.5775 113.44 41.959Z" fill="#C4C4C4"/>
</mask>
<g mask="url(#mask0_906_59102)">
<g id="&#208;&#176;&#209;&#129;&#209;&#130;&#209;&#128;&#208;&#190;&#208;&#189;&#208;&#176;&#208;&#178;&#209;&#130; 2">
<path id="Vector 234240872" d="M65.9312 47.1716C66.0652 48.5585 65.3417 50.417 63.8482 51.1319C63.6085 51.2467 63.5608 51.6336 63.7992 51.7512C66.1654 52.9176 71.4368 55.2522 72.6983 55.0762C74.0409 54.889 76.3422 52.885 75.4954 50.1528C75.4699 50.0707 75.4061 50.0059 75.3261 49.9777L66.344 46.8088C66.1292 46.733 65.909 46.9417 65.9312 47.1716Z" fill="#4164EE"/>
<path id="Vector 234240873 (Stroke)" fill-rule="evenodd" clip-rule="evenodd" d="M63.0818 54.5401C63.0494 55.4177 62.8187 56.5369 62.2322 57.5311C61.6038 58.5963 60.5679 59.5132 58.9626 59.8194L58.4564 60.7194C58.9984 60.8415 59.6801 60.694 60.4075 60.3084C61.1951 59.8908 61.9778 59.2233 62.5858 58.4624C63.1972 57.6972 63.6049 56.8719 63.6914 56.1474C63.7673 55.5115 63.6 54.9562 63.0818 54.5401ZM62.6548 53.7966C62.8393 53.6763 63.0965 53.6481 63.3215 53.7968C64.232 54.3988 64.5335 55.296 64.421 56.2373C64.3118 57.1518 63.817 58.1063 63.1564 58.9331C62.4924 59.7642 61.6336 60.5007 60.7475 60.9705C59.8713 61.435 58.908 61.6689 58.0708 61.3849C57.6634 61.2467 57.5741 60.7831 57.7461 60.4773L58.3442 59.4137C58.4434 59.2374 58.6142 59.1248 58.797 59.0911C60.1889 58.8344 61.0642 58.0583 61.6017 57.1471C62.1461 56.2244 62.3447 55.1585 62.3507 54.3601C62.3525 54.1207 62.4763 53.913 62.6548 53.7966Z" fill="#14004B"/>
<path id="Vector 234240874 (Stroke)" fill-rule="evenodd" clip-rule="evenodd" d="M71.4424 57.9053C69.9712 58.8502 68.2655 61.213 69.1317 64.2662L68.2146 64.9949C67.8184 64.5817 67.6069 63.8904 67.5995 63.0273C67.5917 62.1234 67.8103 61.1004 68.1954 60.1896C68.5825 59.2739 69.1202 58.5125 69.7193 58.0922C70.2519 57.7185 70.8272 57.6126 71.4424 57.9053ZM72.2681 57.9392C72.2866 57.7203 72.1962 57.4743 71.9614 57.3383C71.0085 56.7863 70.0774 56.9334 69.3016 57.4776C68.5478 58.0065 67.9381 58.906 67.52 59.8949C67.0999 60.8886 66.8558 62.0139 66.8645 63.0339C66.8732 64.0422 67.1316 65.0196 67.7999 65.6247C68.0422 65.8442 68.3784 65.8128 68.5941 65.6414L69.6302 64.8182C69.8483 64.6449 69.9249 64.3574 69.851 64.1046C69.0481 61.3587 70.6378 59.2473 71.9335 58.4757C72.1326 58.3572 72.2502 58.1506 72.2681 57.9392Z" fill="#14004B"/>
<path id="Union" fill-rule="evenodd" clip-rule="evenodd" d="M54.6003 39.5374L53.3335 41.1924L53.5982 44.9193L55.3109 44.6707C55.3449 44.6658 55.3787 44.6637 55.4121 44.6642L56.215 40.9616L55.7083 39.5886L54.6003 39.5374ZM52.8752 45.1142L52.8754 45.1172C52.712 45.2513 52.6166 45.4634 52.6383 45.6905L53.3545 53.2104C53.3689 53.3616 53.4346 53.5031 53.5404 53.6106L58.3115 58.4584L56.5533 63.2225L52.9025 66.0664C52.8679 66.0934 52.8361 66.1238 52.8076 66.1573L49.7381 69.7559L44.46 67.7299C44.2869 67.6634 44.094 67.6758 43.9304 67.7638L40.0056 69.875C39.7126 70.0326 39.5849 70.3903 39.7105 70.7021L40.6453 73.0239C40.7727 73.3404 41.1181 73.5041 41.4386 73.3999L44.1636 72.5138L49.1365 75.6418C49.3401 75.7698 49.5966 75.7727 49.8029 75.6494L57.7574 70.8951L59.4581 77.3465L56.29 80.8039L54.0965 81.3611C53.8146 81.4327 53.6146 81.6871 53.6082 81.9822L53.493 87.2466C53.4859 87.5744 53.7184 87.8572 54.0372 87.9083L55.912 88.2091C56.2555 88.2642 56.5802 88.0327 56.6458 87.6856L57.1846 84.8389L64.3793 81.6711C64.5826 81.5816 64.7265 81.3921 64.7602 81.1695L66.2339 71.4364L68.3029 65.7481L71.255 64.0683L77.3526 63.2009C77.4958 63.1806 77.6282 63.1118 77.7284 63.0058L83.3834 57.0204C83.4151 56.9869 83.4424 56.9513 83.4655 56.914C83.473 56.906 83.4803 56.8977 83.4872 56.8889L85.7215 54.0684C85.8342 53.9261 85.8834 53.7423 85.857 53.5616L85.6176 51.9198C85.5846 51.6933 85.4376 51.5008 85.23 51.4119L84.1633 50.9556C83.987 50.8802 83.7868 50.8882 83.6168 50.9775L81.7795 51.9431C81.6621 52.0048 81.5662 52.1017 81.5048 52.2205L80.1441 54.8539C80.016 54.8662 79.892 54.9174 79.79 55.0045L76.8872 57.4821H72.3381L71.6014 56.3177C72.4126 56.0972 73.4583 55.6868 74.3548 55.0494C75.2877 54.3861 76.1028 53.4436 76.2588 52.1762C76.4537 50.5915 76.2612 48.8309 75.5519 47.3393C74.8383 45.8385 73.5989 44.6094 71.7257 44.1336C69.9103 43.6725 67.9895 43.7352 66.3966 44.3025C64.8031 44.87 63.5023 45.9589 63.0203 47.568L62.9756 47.7173C62.5934 48.9919 62.2947 49.9883 62.2826 50.8944C62.27 51.8406 62.5662 52.6676 63.2886 53.625L61.0967 53.9034L57.5599 51.1483L56.0435 45.2222C56.0444 45.2186 56.0453 45.215 56.0461 45.2113L56.9385 41.0958C56.9653 40.9722 56.9563 40.8433 56.9126 40.7248L56.3756 39.2698C56.285 39.0242 56.0589 38.8572 55.8011 38.8453L54.5871 38.7892C54.378 38.7796 54.1773 38.8736 54.0488 39.0415L52.7321 40.7616C52.6342 40.8894 52.5865 41.0495 52.5979 41.211L52.8752 45.1142ZM80.8664 55.0628L83.1497 55.9551C83.1838 55.9684 83.216 55.9842 83.2462 56.0022L85.1242 53.6314L84.898 52.0802L83.917 51.6605L82.1424 52.5932L80.8664 55.0628ZM66.6397 45.0073C65.1965 45.5213 64.1181 46.4681 63.7235 47.7854L63.705 47.8471C63.2989 49.2027 63.0282 50.1065 63.0176 50.9045C63.0073 51.6735 63.2419 52.3645 63.9485 53.2704C64.2532 53.6612 64.0465 54.2814 63.5227 54.3479L61.1512 54.6491C60.983 54.6705 60.8133 54.6237 60.6788 54.5189L57.0881 51.7218C56.9741 51.633 56.8925 51.508 56.8564 51.3667L55.3351 45.4216L53.3781 45.7057L54.0829 53.1057L58.8723 57.9721C59.0511 58.1537 59.1089 58.4249 59.0201 58.6654L57.2324 63.5093C57.19 63.6242 57.1167 63.7246 57.0209 63.7992L53.357 66.6534L50.2524 70.2933C50.0754 70.5007 49.7899 70.5741 49.5372 70.4771L44.2383 68.4431L40.4217 70.4962L41.294 72.6628L43.9792 71.7897C44.1589 71.7313 44.3548 71.7557 44.5152 71.8566L49.4772 74.9777L57.4868 70.1904C57.8542 69.9708 58.3264 70.1673 58.4367 70.5856L60.181 77.2022C60.2385 77.4203 60.1814 77.653 60.03 77.8182L56.8097 81.3327C56.7247 81.4254 56.6151 81.4911 56.4941 81.5219L54.3415 82.0687L54.2296 87.1831L55.9405 87.4576L56.4718 84.6504C56.5121 84.4377 56.6531 84.259 56.8487 84.1729L64.0413 81.006L65.5089 71.3137C65.5155 71.2702 65.5263 71.2275 65.5414 71.1862L67.625 65.4575C67.6782 65.3113 67.7809 65.1891 67.9148 65.113L70.9106 63.4083C70.9805 63.3686 71.057 63.3424 71.1363 63.3311L77.2198 62.4657L82.7593 56.6027L80.222 55.6111L77.3348 58.0754C77.2186 58.1745 77.0718 58.2289 76.9201 58.2289H72.2889C72.0694 58.2289 71.8651 58.1155 71.7464 57.928L70.9226 56.6258C70.6738 56.2326 70.8975 55.7297 71.3179 55.621C72.0837 55.4231 73.0917 55.036 73.9334 54.4375C74.7768 53.8378 75.4094 53.0593 75.5294 52.0836C75.7101 50.6147 75.527 49.0036 74.8901 47.6642C74.2576 46.3341 73.1804 45.2729 71.5474 44.8581C69.8566 44.4286 68.0833 44.4931 66.6397 45.0073Z" fill="#14004B"/>
</g>
</g>
</g>
<g id="Group 335845">
<g id="&#209;&#129;&#208;&#191;&#209;&#131;&#209;&#130;&#208;&#189;&#208;&#184;&#208;&#186;" opacity="0.1">
<g id="Group 335667">
<path id="Vector 234240879" d="M138.837 28.7427C143.158 33.1417 150.872 41.395 153.526 44.1465C153.656 44.2811 153.609 44.4932 153.424 44.4776C151.25 44.2934 144.686 36.3585 141.423 33.26C138.488 29.8311 132.231 22.2597 130.974 20.8642C130.393 20.2191 131.279 19.8446 131.934 20.0271C131.986 20.0415 132.03 20.0739 132.062 20.1179C132.841 21.1927 134.554 24.3815 138.837 28.7427Z" fill="white"/>
<path id="Vector 234240879 (Stroke)" fill-rule="evenodd" clip-rule="evenodd" d="M132.031 19.667C132.171 19.7058 132.282 19.7919 132.357 19.8965C132.515 20.1135 132.706 20.4084 132.943 20.775C133.917 22.2802 135.673 24.993 139.097 28.4789C141.855 31.2866 146.003 35.6726 149.33 39.1901C151.213 41.1816 152.833 42.8946 153.789 43.8852C153.934 44.0354 154.005 44.2565 153.947 44.4687C153.917 44.5777 153.851 44.6846 153.744 44.7592C153.636 44.8346 153.512 44.8597 153.394 44.8497C153.035 44.8194 152.636 44.6384 152.229 44.3898C151.813 44.1357 151.349 43.7856 150.856 43.3704C149.869 42.5398 148.732 41.4228 147.57 40.2237C146.627 39.2507 145.669 38.2266 144.756 37.2495C143.401 35.8007 142.143 34.4553 141.172 33.5329L141.158 33.5197L141.145 33.5051C139.776 31.9057 137.697 29.4204 135.737 27.0775C133.477 24.3752 131.375 21.8623 130.703 21.1163C130.519 20.9124 130.396 20.668 130.421 20.4001C130.447 20.1276 130.616 19.9368 130.791 19.8217C131.126 19.6018 131.623 19.5534 132.031 19.667ZM131.792 20.376C131.557 20.3243 131.309 20.371 131.19 20.449C131.172 20.461 131.161 20.4704 131.155 20.4766C131.161 20.4957 131.181 20.5403 131.245 20.6122C131.922 21.3637 134.047 23.9041 136.322 26.6233C138.274 28.9562 140.336 31.4209 141.687 33.0005C142.669 33.9338 143.952 35.3059 145.317 36.7651C146.228 37.7394 147.175 38.7525 148.094 39.6997C149.252 40.8946 150.368 41.9896 151.325 42.7953C151.804 43.1984 152.236 43.5226 152.607 43.7498C152.627 43.7619 152.647 43.7737 152.666 43.7852C151.69 42.7643 150.323 41.3187 148.783 39.6895C145.461 36.1776 141.333 31.8121 138.577 29.0065C135.089 25.4552 133.28 22.6569 132.316 21.167C132.103 20.8372 131.931 20.5715 131.792 20.376ZM131.153 20.4657C131.153 20.4657 131.153 20.466 131.153 20.4665C131.153 20.466 131.153 20.4657 131.153 20.4657ZM131.15 20.4827C131.15 20.4845 131.149 20.4854 131.149 20.4854C131.149 20.4854 131.149 20.4844 131.15 20.4827Z" fill="#14004B"/>
<path id="Vector 234240880" d="M140.175 22.4828C145.935 24.5733 156.388 28.6666 159.947 29.9955C160.121 30.0605 160.168 30.2726 159.994 30.339C157.952 31.1203 148.673 26.8133 144.417 25.4366C140.319 23.6183 131.47 19.506 129.746 18.793C128.949 18.4634 129.59 17.7393 130.26 17.6183C130.313 17.6087 130.366 17.619 130.413 17.6449C131.571 18.2761 134.464 20.4103 140.175 22.4828Z" fill="white"/>
<path id="Vector 234240880 (Stroke)" fill-rule="evenodd" clip-rule="evenodd" d="M130.195 17.2506C130.338 17.2249 130.474 17.2544 130.587 17.3159C130.821 17.4433 131.117 17.6265 131.487 17.8543C133.002 18.7893 135.734 20.4746 140.298 22.1312C143.975 23.4655 149.573 25.6196 154.063 27.3472C156.605 28.3253 158.792 29.1666 160.073 29.645C160.268 29.7176 160.426 29.886 160.463 30.1031C160.482 30.2145 160.467 30.3398 160.402 30.4539C160.336 30.5691 160.234 30.6461 160.124 30.6885C159.787 30.8172 159.35 30.828 158.877 30.7808C158.394 30.7325 157.828 30.6182 157.207 30.4582C155.965 30.1379 154.466 29.6245 152.91 29.0479C151.647 28.58 150.35 28.0722 149.112 27.5877C147.277 26.8694 145.573 26.2023 144.306 25.7925L144.287 25.7866L144.27 25.7789C142.358 24.9307 139.431 23.5918 136.671 22.3296C133.489 20.8738 130.529 19.52 129.607 19.1388C129.355 19.0347 129.14 18.8677 129.05 18.6148C128.958 18.3574 129.03 18.1114 129.14 17.931C129.35 17.5864 129.779 17.326 130.195 17.2506ZM130.278 17.9955C130.044 18.0512 129.84 18.2016 129.765 18.3238C129.754 18.3426 129.748 18.3557 129.746 18.3639C129.759 18.3786 129.795 18.4104 129.884 18.4471C130.813 18.8311 133.805 20.1996 137.008 21.6645C139.756 22.9212 142.659 24.2489 144.547 25.0867C145.827 25.5021 147.566 26.1823 149.415 26.9056C150.649 27.3886 151.933 27.8908 153.162 28.3463C154.713 28.9209 156.183 29.4237 157.388 29.7343C157.99 29.8897 158.517 29.9944 158.949 30.0375C158.972 30.0399 158.995 30.042 159.017 30.0439C157.705 29.5469 155.86 28.837 153.78 28.0367C149.297 26.3119 143.725 24.1678 140.051 22.8345C135.401 21.1468 132.585 19.4075 131.086 18.4815C130.754 18.2765 130.487 18.1114 130.278 17.9955ZM129.739 18.3551C129.739 18.3551 129.739 18.3553 129.739 18.3557C129.739 18.3553 129.739 18.3551 129.739 18.3551ZM129.744 18.3715C129.744 18.3735 129.744 18.3746 129.744 18.3746C129.743 18.3746 129.743 18.3736 129.744 18.3715Z" fill="#14004B"/>
<path id="Vector 234240833" d="M139.109 25.6617C141.069 21.935 138.214 17.1739 134.686 15.6047C130.991 13.9616 126.587 16.6146 125.918 20.5333C125.569 22.5772 126.235 26.4475 128.941 27.9291C129.918 28.464 131.195 28.9244 132.544 29.075C134.932 29.3417 137.543 28.6383 139.109 25.6617Z" fill="white"/>
<path id="Vector 234240833 (Stroke)" fill-rule="evenodd" clip-rule="evenodd" d="M135.986 28.243C137.055 27.7637 138.039 26.9038 138.785 25.4857C139.694 23.7579 139.5 21.7678 138.627 19.9909C137.753 18.2112 136.218 16.6939 134.539 15.9468C131.078 14.4079 126.911 16.8994 126.28 20.5972C126.117 21.5538 126.189 22.97 126.632 24.3242C127.075 25.6771 127.872 26.9196 129.115 27.6004C129.909 28.0352 130.911 28.4191 131.984 28.6153L132.005 28.5391L132.613 28.707C133.75 28.8301 134.921 28.7208 135.986 28.243ZM132.623 29.4586C133.829 29.5773 135.102 29.4562 136.283 28.9262C137.509 28.3764 138.613 27.3962 139.433 25.8378C140.484 23.8389 140.231 21.585 139.284 19.6574C138.339 17.7326 136.682 16.0848 134.833 15.2627C130.904 13.5152 126.262 16.3298 125.556 20.4695C125.37 21.5567 125.456 23.0976 125.935 24.56C126.414 26.0236 127.304 27.4571 128.767 28.2579C129.773 28.809 131.085 29.2832 132.475 29.4429L132.616 29.4819L132.623 29.4586Z" fill="#14004B"/>
<path id="Vector 234240877" d="M137.902 33.1869C142.007 37.7943 149.317 46.4192 151.836 49.2987C151.959 49.4395 151.902 49.6491 151.718 49.6243C149.555 49.3329 143.379 41.0829 140.268 37.8267C137.501 34.2567 131.614 26.385 130.426 24.929C129.876 24.2559 130.778 23.9256 131.425 24.1403C131.476 24.1573 131.518 24.1918 131.548 24.2374C132.274 25.3493 133.832 28.6191 137.902 33.1869Z" fill="white"/>
<path id="Vector 234240877 (Stroke)" fill-rule="evenodd" clip-rule="evenodd" d="M131.539 23.7854C131.677 23.8311 131.783 23.9225 131.854 24.0308C132 24.2553 132.177 24.5593 132.396 24.9372C133.297 26.4887 134.921 29.2852 138.175 32.9363C140.795 35.877 144.728 40.4629 147.882 44.1406C149.668 46.2229 151.204 48.014 152.111 49.0507C152.248 49.2079 152.309 49.4322 152.241 49.6413C152.206 49.7487 152.135 49.8522 152.025 49.9215C151.913 49.9914 151.787 50.0103 151.67 49.9945C151.314 49.9465 150.923 49.7459 150.528 49.4775C150.125 49.2031 149.679 48.8305 149.206 48.3915C148.26 47.513 147.178 46.3412 146.075 45.086C145.179 44.0675 144.272 42.9973 143.406 41.9762C142.123 40.4622 140.931 39.0562 140.004 38.0868L139.991 38.0729L139.979 38.0577C138.689 36.3926 136.731 33.8074 134.886 31.3704C132.757 28.5595 130.778 25.9456 130.143 25.1673C129.969 24.9546 129.857 24.7044 129.895 24.4381C129.934 24.1671 130.112 23.9849 130.293 23.8786C130.638 23.6756 131.137 23.6518 131.539 23.7854ZM131.266 24.4818C131.034 24.4185 130.783 24.4529 130.661 24.5249C130.642 24.536 130.631 24.5448 130.625 24.5508C130.63 24.5702 130.647 24.6157 130.709 24.6906C131.348 25.4747 133.349 28.1172 135.491 30.9456C137.329 33.3723 139.271 35.9359 140.545 37.5805C141.481 38.5613 142.697 39.9952 143.99 41.5201C144.853 42.5383 145.751 43.5971 146.623 44.5885C147.723 45.8393 148.785 46.9881 149.702 47.8402C150.161 48.2665 150.577 48.6117 150.937 48.857C150.957 48.8701 150.976 48.8828 150.994 48.8953C150.069 47.8273 148.772 46.3159 147.312 44.6124C144.162 40.9404 140.248 36.3761 137.63 33.4375C134.316 29.718 132.643 26.8335 131.752 25.2978C131.555 24.9578 131.396 24.684 131.266 24.4818ZM130.623 24.5398C130.623 24.5398 130.623 24.54 130.623 24.5405C130.623 24.54 130.623 24.5398 130.623 24.5398ZM130.62 24.5566C130.619 24.5584 130.618 24.5592 130.618 24.5592C130.618 24.5592 130.619 24.5583 130.62 24.5566Z" fill="#14004B"/>
<path id="Vector 234240878" d="M143 27.1822C148.117 30.5887 157.331 37.0616 160.483 39.2025C160.637 39.3072 160.634 39.5246 160.45 39.5477C158.285 39.82 150.26 33.4194 146.442 31.0657C142.878 28.3203 135.227 22.2117 133.716 21.1072C133.017 20.5967 133.808 20.0459 134.487 20.088C134.541 20.0914 134.59 20.114 134.63 20.1505C135.609 21.0402 137.928 23.805 143 27.1822Z" fill="white"/>
<path id="Vector 234240878 (Stroke)" fill-rule="evenodd" clip-rule="evenodd" d="M134.509 19.7153C134.654 19.7243 134.78 19.7855 134.875 19.8721C135.073 20.0518 135.319 20.3007 135.625 20.6101C136.882 21.8806 139.148 24.1705 143.202 26.8699C146.467 29.0441 151.411 32.4739 155.377 35.2244C157.622 36.7817 159.553 38.1213 160.688 38.892C160.86 39.0089 160.974 39.2104 160.96 39.4302C160.953 39.5431 160.91 39.6614 160.82 39.7568C160.73 39.853 160.613 39.9035 160.495 39.9183C160.139 39.9632 159.711 39.8692 159.262 39.7106C158.804 39.5485 158.28 39.3022 157.713 38.9985C156.58 38.3908 155.242 37.5342 153.862 36.6024C152.743 35.8463 151.599 35.0432 150.508 34.2769C148.89 33.1408 147.388 32.0857 146.251 31.385L146.235 31.375L146.22 31.3633C144.557 30.0827 142.021 28.0828 139.631 26.1974C136.873 24.0229 134.309 22.0008 133.501 21.4104C133.281 21.249 133.11 21.0355 133.081 20.7681C133.051 20.496 133.178 20.274 133.327 20.1249C133.61 19.84 134.087 19.6891 134.509 19.7153ZM134.418 20.4591C134.178 20.4574 133.944 20.5548 133.843 20.6558C133.828 20.6714 133.82 20.6828 133.815 20.6901C133.825 20.7077 133.853 20.7472 133.931 20.8041C134.744 21.3989 137.337 23.4431 140.111 25.6312C142.492 27.5085 145.007 29.4917 146.649 30.7566C147.797 31.4658 149.33 32.5418 150.96 33.686C152.048 34.45 153.18 35.2445 154.269 35.9805C155.644 36.909 156.957 37.7486 158.056 38.338C158.606 38.6329 159.094 38.8604 159.504 39.0053C159.526 39.0131 159.547 39.0205 159.569 39.0277C158.408 38.2315 156.778 37.1011 154.942 35.8271C150.983 33.0809 146.062 29.6672 142.799 27.4946C138.669 24.7446 136.334 22.3821 135.091 21.1243C134.816 20.8458 134.594 20.6215 134.418 20.4591ZM133.811 20.6799C133.811 20.6799 133.811 20.6802 133.811 20.6807C133.811 20.6802 133.811 20.6799 133.811 20.6799ZM133.811 20.6971C133.811 20.6991 133.811 20.7 133.811 20.7001C133.81 20.7001 133.811 20.6991 133.811 20.6971Z" fill="#14004B"/>
<path id="Vector 234240881 (Stroke)" fill-rule="evenodd" clip-rule="evenodd" d="M126.492 22.1496C126.46 21.9458 126.598 21.7549 126.798 21.7231C127.387 21.6298 128.324 21.4303 129.209 21.1377C129.652 20.9915 130.074 20.8245 130.43 20.6398C130.791 20.4524 131.059 20.2597 131.217 20.0727C131.573 19.6523 131.906 18.8874 132.177 18.053C132.444 17.2327 132.634 16.3993 132.728 15.8868C132.765 15.684 132.956 15.5501 133.156 15.5876C133.356 15.6252 133.487 15.82 133.451 16.0228C133.352 16.5636 133.153 17.4304 132.875 18.2872C132.601 19.1299 132.232 20.0191 131.774 20.5599C131.526 20.8535 131.161 21.0991 130.764 21.3049C130.362 21.5133 129.902 21.6943 129.437 21.8479C128.507 22.1551 127.531 22.3628 126.911 22.461C126.711 22.4928 126.523 22.3533 126.492 22.1496Z" fill="#14004B"/>
<path id="Vector 234240882 (Stroke)" fill-rule="evenodd" clip-rule="evenodd" d="M125.612 23.5688C125.58 23.3651 125.717 23.1741 125.918 23.1423C126.695 23.0192 127.931 22.7561 129.099 22.37C129.683 22.177 130.243 21.9558 130.717 21.7097C131.197 21.461 131.563 21.1999 131.785 20.938C132.268 20.3678 132.71 19.3449 133.066 18.2489C133.417 17.167 133.669 16.0684 133.792 15.3916C133.829 15.1889 134.021 15.0549 134.221 15.0924C134.42 15.13 134.552 15.3248 134.515 15.5276C134.387 16.2327 134.127 17.3647 133.764 18.4831C133.405 19.5873 132.927 20.7345 132.342 21.4252C132.03 21.7938 131.566 22.1078 131.051 22.3749C130.531 22.6446 129.933 22.8798 129.326 23.0802C128.114 23.4809 126.839 23.7522 126.031 23.8802C125.831 23.912 125.643 23.7726 125.612 23.5688Z" fill="#14004B"/>
</g>
</g>
<g id="&#209;&#129;&#208;&#176;&#209;&#130;&#209;&#131;&#209;&#128;&#208;&#189;" opacity="0.1">
<path id="Vector 234240816 (Stroke)" fill-rule="evenodd" clip-rule="evenodd" d="M25.3916 31.6698C22.9008 29.7561 19.6302 28.8104 15.6055 30.2785C12.4462 31.431 10.8532 34.2059 10.1574 37.2917C9.4678 40.3503 9.67852 43.6499 10.0912 45.774C13.0256 50.7785 16.2338 52.3633 19.0721 52.6237C21.4575 52.8425 23.6125 52.1381 25.2572 51.6005C25.6093 51.4854 25.938 51.3779 26.2406 51.2888C26.9802 51.071 27.7283 50.5164 28.4128 49.6939C29.0946 48.8746 29.6952 47.8105 30.1445 46.6153C31.0454 44.2183 31.3159 41.3551 30.4792 38.9621C29.623 36.5133 27.8995 33.5966 25.3916 31.6698ZM25.8349 31.0741C28.4855 33.1105 30.2808 36.1639 31.1718 38.7121C32.0823 41.3162 31.7759 44.368 30.8311 46.8818C30.3574 48.142 29.7178 49.2823 28.9741 50.1761C28.233 51.0666 27.3702 51.7337 26.4452 52.0061C26.1703 52.0871 25.8624 52.1882 25.5254 52.2988C23.8851 52.8373 21.5572 53.6015 19.006 53.3675C15.8832 53.0811 12.4689 51.3174 9.42696 46.1001L9.39519 46.0456L9.38288 45.9835C8.94741 43.7874 8.71555 40.3424 9.44099 37.125C10.167 33.9049 11.8712 30.8472 15.3572 29.5756C19.6391 28.0137 23.1671 29.0244 25.8349 31.0741Z" fill="#14004B"/>
<path id="Vector 234240819 (Stroke)" fill-rule="evenodd" clip-rule="evenodd" d="M14.0583 39.0742C14.0583 39.0742 14.058 39.0742 14.0573 39.0742C14.058 39.0742 14.0583 39.0742 14.0583 39.0742ZM12.5342 39.0407C13.0512 38.5398 13.6748 38.3492 14.0114 38.3288C14.1251 38.3219 14.2589 38.339 14.3786 38.4175C14.5076 38.5021 14.5824 38.6338 14.6014 38.7738C14.6352 39.0237 14.4945 39.2378 14.3556 39.3653C14.3406 39.3791 14.3237 39.395 14.3049 39.4128C14.1014 39.6051 13.6727 40.0103 12.949 40.1656L12.8937 40.1774L12.8374 40.1719C12.7644 40.1646 12.6757 40.1464 12.5887 40.1085C12.5058 40.0723 12.3881 40.0019 12.3112 39.8684C12.2242 39.7173 12.2248 39.548 12.2806 39.3991C12.3311 39.2648 12.4251 39.1464 12.5342 39.0407Z" fill="#14004B"/>
<path id="Vector 234240829 (Stroke)" fill-rule="evenodd" clip-rule="evenodd" d="M24.8441 49.2365C24.8441 49.2365 24.844 49.2368 24.8437 49.2374C24.844 49.2368 24.8441 49.2365 24.8441 49.2365ZM24.2372 50.6574C24.9011 50.3894 25.3321 49.8934 25.491 49.5912C25.5447 49.4891 25.5853 49.3585 25.5651 49.2152C25.5434 49.0608 25.4569 48.9366 25.3396 48.8607C25.1304 48.725 24.8801 48.7654 24.7081 48.8404C24.6895 48.8485 24.6682 48.8574 24.6444 48.8674C24.3874 48.9749 23.846 49.2013 23.4048 49.8045L23.3711 49.8506L23.3525 49.9049C23.3285 49.9753 23.3077 50.0648 23.3053 50.161C23.303 50.2526 23.3168 50.3906 23.404 50.5174C23.5028 50.6609 23.6544 50.7311 23.8109 50.7417C23.952 50.7513 24.0972 50.714 24.2372 50.6574Z" fill="#14004B"/>
<path id="Vector 234240825 (Stroke)" fill-rule="evenodd" clip-rule="evenodd" d="M21.089 32.7766C21.459 32.7253 22.0429 32.7367 22.6437 32.987C22.6778 33.0012 22.7073 33.0148 22.7328 33.0276C21.996 33.1194 21.4492 32.9191 21.089 32.7766ZM20.7892 32.8473C20.7892 32.8473 20.7895 32.8471 20.7899 32.8468C20.7894 32.8471 20.7892 32.8473 20.7892 32.8473ZM20.8307 32.6513C20.8303 32.6507 20.83 32.6504 20.83 32.6504C20.83 32.6504 20.8302 32.6507 20.8307 32.6513ZM22.9224 32.2959C21.9689 31.8988 21.0355 31.9788 20.591 32.125C20.4517 32.1708 20.3124 32.2507 20.2171 32.3849C20.1154 32.5282 20.0898 32.6976 20.1268 32.8543C20.194 33.138 20.4412 33.3245 20.6763 33.4149C20.7056 33.4261 20.7383 33.4393 20.7745 33.4538C21.1624 33.6094 21.9402 33.9213 22.9877 33.7446L23.0435 33.7352L23.0939 33.7092C23.1797 33.665 23.2775 33.6006 23.3625 33.5155C23.4442 33.4336 23.542 33.304 23.5692 33.129C23.5996 32.9338 23.532 32.7524 23.4047 32.6099C23.2877 32.4789 23.1204 32.3784 22.9224 32.2959Z" fill="#14004B"/>
<path id="Vector 234240817 (Stroke)" fill-rule="evenodd" clip-rule="evenodd" d="M35.6463 39.1059C33.1769 40.8725 28.9677 43.253 22.3219 46.4429C17.0017 48.9965 13.1441 50.504 10.4136 51.2204C9.04874 51.5785 7.94984 51.7432 7.08201 51.7358C6.21788 51.7284 5.54355 51.55 5.07016 51.179C4.58334 50.7975 4.36173 50.2546 4.32551 49.6437C4.28999 49.0447 4.43014 48.3652 4.67326 47.6535C5.15997 46.2287 6.10034 44.5613 7.12659 42.9325C7.23602 42.7588 7.46331 42.7081 7.63425 42.8193C7.80518 42.9305 7.85504 43.1614 7.74561 43.3351C6.72329 44.9577 5.82398 46.5625 5.36762 47.8984C5.13921 48.567 5.03197 49.1399 5.05918 49.5988C5.0857 50.046 5.23693 50.3666 5.51903 50.5876C5.81457 50.8192 6.30525 50.9823 7.08817 50.989C7.86739 50.9956 8.89758 50.8468 10.2298 50.4973C12.8936 49.7984 16.7022 48.3143 22.008 45.7676C28.6446 42.5821 32.8071 40.2237 35.2231 38.4952C36.4341 37.6289 37.1832 36.9368 37.5878 36.3953C37.9996 35.8441 37.9888 35.5455 37.9146 35.3887C37.8234 35.1959 37.5438 34.9888 36.9696 34.8317C36.4183 34.6808 35.6908 34.6019 34.8626 34.5793C33.2103 34.5343 31.2333 34.7147 29.6367 34.9293C29.4355 34.9563 29.2508 34.8125 29.2242 34.6081C29.1976 34.4036 29.3391 34.2159 29.5403 34.1889C31.1535 33.9721 33.174 33.7862 34.8824 33.8328C35.7346 33.856 36.5282 33.9375 37.1607 34.1106C37.7703 34.2774 38.3372 34.5579 38.5771 35.0653C38.8342 35.6089 38.6391 36.2232 38.1732 36.8468C37.7001 37.4801 36.878 38.2247 35.6463 39.1059Z" fill="#14004B"/>
<path id="Vector 234240818 (Stroke)" fill-rule="evenodd" clip-rule="evenodd" d="M33.814 38.7145C31.4495 40.3053 27.5581 42.4532 21.5525 45.3358C16.7424 47.6446 13.2352 48.9729 10.7309 49.5901C9.4788 49.8988 8.464 50.033 7.65474 50.0177C6.84831 50.0025 6.21564 49.8381 5.75833 49.5179C4.79142 48.8411 4.80781 47.6501 5.16967 46.5159C5.53914 45.358 6.31591 44.0726 7.16595 42.9455C7.2894 42.7818 7.52008 42.7508 7.68118 42.8763C7.84228 43.0017 7.8728 43.2361 7.74934 43.3998C6.92157 44.4973 6.20121 45.7046 5.86885 46.7463C5.5289 47.8117 5.63877 48.5274 6.17532 48.9029C6.46974 49.109 6.94129 49.2573 7.66841 49.271C8.39269 49.2847 9.34075 49.1643 10.5576 48.8644C12.9914 48.2645 16.4468 46.9605 21.2386 44.6605C27.2354 41.7822 31.0885 39.6525 33.4082 38.0918C34.57 37.3102 35.3302 36.6824 35.7816 36.1861C36.2522 35.6686 36.3084 35.3811 36.2848 35.2573C36.266 35.1586 36.1564 35.002 35.7323 34.8662C35.3303 34.7376 34.7619 34.6683 34.0817 34.6496C32.7279 34.6124 31.0348 34.777 29.5898 34.9712C29.3886 34.9983 29.2039 34.8544 29.1773 34.65C29.1506 34.4456 29.2922 34.2579 29.4934 34.2308C30.9488 34.0352 32.6882 33.8642 34.1016 33.9031C34.8049 33.9224 35.4538 33.9941 35.9531 34.1539C36.4302 34.3066 36.9058 34.5861 37.0065 35.1156C37.1024 35.6201 36.8124 36.1531 36.3214 36.6929C35.8111 37.254 34.9943 37.9204 33.814 38.7145Z" fill="#14004B"/>
<path id="Vector 234240822 (Stroke)" fill-rule="evenodd" clip-rule="evenodd" d="M13.8549 40.6094C13.8569 40.6103 13.8591 40.6113 13.8617 40.6126C13.8858 40.6249 13.959 40.6735 14.0414 40.8389C14.133 41.0229 14.3541 41.0966 14.5352 41.0035C14.7163 40.9104 14.7888 40.6857 14.6972 40.5017C14.4232 39.9516 13.9766 39.7697 13.6375 39.8971C13.4471 39.9686 13.3498 40.1834 13.4202 40.3768C13.486 40.5577 13.675 40.6558 13.8549 40.6094ZM13.8454 40.6063C13.8454 40.6063 13.8458 40.6064 13.8468 40.6066C13.8458 40.6065 13.8454 40.6064 13.8454 40.6063Z" fill="#14004B"/>
<path id="Vector 234240830 (Stroke)" fill-rule="evenodd" clip-rule="evenodd" d="M23.3863 48.7826C23.3864 48.7805 23.3864 48.7779 23.3863 48.775C23.3854 48.7477 23.3726 48.6598 23.259 48.5146C23.1328 48.3531 23.1593 48.1182 23.3182 47.99C23.4772 47.8617 23.7083 47.8886 23.8346 48.0501C24.212 48.5329 24.188 49.0211 23.9324 49.281C23.7889 49.4268 23.5562 49.4269 23.4127 49.2811C23.2785 49.1448 23.2697 48.9293 23.3863 48.7826ZM23.3851 48.7927C23.3851 48.7927 23.3853 48.7923 23.3855 48.7913C23.3852 48.7922 23.3851 48.7927 23.3851 48.7927Z" fill="#14004B"/>
<path id="Vector 234240826 (Stroke)" fill-rule="evenodd" clip-rule="evenodd" d="M22.2707 34.4284C22.2715 34.4275 22.2719 34.4271 22.272 34.4272C22.2741 34.4286 22.1515 34.62 22.5 35.0397C22.6309 35.1973 22.6112 35.4329 22.4561 35.5659C22.301 35.6989 22.0691 35.6789 21.9382 35.5213C21.3886 34.8595 21.4409 34.2344 21.7299 33.9227C21.8691 33.7726 22.1017 33.7655 22.2494 33.9069C22.3951 34.0464 22.4039 34.278 22.2707 34.4284Z" fill="#14004B"/>
<path id="Vector 234240823 (Stroke)" fill-rule="evenodd" clip-rule="evenodd" d="M12.7235 40.0764C12.9 39.9747 13.1243 40.0377 13.2244 40.2172C13.3004 40.3535 13.3274 40.5453 13.2511 40.7378C13.1736 40.9332 13.0094 41.0829 12.7884 41.1874C12.6044 41.2745 12.3858 41.1934 12.3001 41.0065C12.2145 40.8195 12.2942 40.5974 12.4783 40.5104C12.5079 40.4963 12.5291 40.4838 12.544 40.4735C12.5142 40.32 12.5821 40.1578 12.7235 40.0764ZM12.5759 40.446C12.5759 40.446 12.5756 40.4465 12.5749 40.4473C12.5755 40.4464 12.5758 40.446 12.5759 40.446Z" fill="#14004B"/>
<path id="Vector 234240831 (Stroke)" fill-rule="evenodd" clip-rule="evenodd" d="M23.3901 50.0499C23.5548 49.9293 23.5921 49.696 23.4735 49.5286C23.3834 49.4015 23.2232 49.2964 23.0192 49.2864C22.8121 49.2763 22.6096 49.3653 22.4238 49.5257C22.2691 49.6592 22.2502 49.8948 22.3816 50.052C22.513 50.2092 22.7449 50.2284 22.8996 50.0949C22.9245 50.0734 22.9446 50.0591 22.96 50.0496C23.0848 50.1413 23.2583 50.1463 23.3901 50.0499ZM22.9979 50.0317C22.9979 50.0316 22.9974 50.0317 22.9963 50.032C22.9974 50.0318 22.9979 50.0317 22.9979 50.0317Z" fill="#14004B"/>
<path id="Vector 234240827 (Stroke)" fill-rule="evenodd" clip-rule="evenodd" d="M23.2603 33.8686C23.0594 33.8392 22.8731 33.9808 22.8442 34.185C22.8188 34.3644 22.8687 34.5904 23.039 34.774C23.2114 34.96 23.4723 35.0668 23.8078 35.0883C24.0103 35.1012 24.1849 34.9449 24.1977 34.7391C24.2105 34.5333 24.0566 34.3559 23.8541 34.3429C23.6482 34.3297 23.5848 34.2731 23.5747 34.2626C23.5873 34.0698 23.4517 33.8966 23.2603 33.8686Z" fill="#14004B"/>
<path id="Vector 234240824 (Stroke)" fill-rule="evenodd" clip-rule="evenodd" d="M16.4234 39.3504C16.5326 39.5242 16.4825 39.7551 16.3114 39.866C16.18 39.9513 15.9024 40.0563 15.5451 40.0613C15.3095 40.0646 15.0695 39.9716 14.8953 39.8871C14.7112 39.7977 14.5465 39.6906 14.4456 39.6151C14.2823 39.4926 14.2475 39.2589 14.368 39.0929C14.4885 38.9269 14.7186 38.8916 14.8819 39.014C14.9495 39.0647 15.0745 39.1464 15.2121 39.2132C15.3598 39.2849 15.4737 39.3154 15.5349 39.3146C15.6487 39.313 15.7433 39.2952 15.8127 39.2752C15.8743 39.2575 15.908 39.2404 15.915 39.2369C15.9164 39.2362 15.9167 39.236 15.9159 39.2366C16.087 39.1256 16.3142 39.1766 16.4234 39.3504Z" fill="#14004B"/>
<path id="Vector 234240832 (Stroke)" fill-rule="evenodd" clip-rule="evenodd" d="M25.5854 46.9377C25.4756 46.7642 25.2482 46.7141 25.0775 46.8256C24.9463 46.9113 24.7365 47.1237 24.5827 47.4514C24.4813 47.6675 24.4642 47.9279 24.467 48.124C24.4699 48.3314 24.4969 48.5282 24.5223 48.6528C24.5635 48.8548 24.758 48.9845 24.9568 48.9427C25.1555 48.9008 25.2832 48.7032 25.242 48.5012C25.225 48.4177 25.2041 48.2682 25.2019 48.1132C25.1995 47.9469 25.2198 47.829 25.2461 47.7728C25.2951 47.6684 25.3505 47.5886 25.3974 47.5329C25.439 47.4834 25.4683 47.4594 25.4744 47.4544C25.4756 47.4534 25.4759 47.4532 25.4751 47.4537C25.6458 47.3422 25.6952 47.1111 25.5854 46.9377Z" fill="#14004B"/>
<path id="Vector 234240828 (Stroke)" fill-rule="evenodd" clip-rule="evenodd" d="M17.8805 34.7617C17.841 34.964 17.9705 35.1605 18.1696 35.2006C18.3625 35.2394 18.7738 35.2372 19.2496 35.0559C19.5409 34.9449 19.8036 34.707 19.9975 34.4966C20.1989 34.2781 20.3653 34.0455 20.4605 33.8921C20.5688 33.7177 20.5174 33.4871 20.3457 33.3771C20.174 33.2671 19.9471 33.3193 19.8388 33.4937C19.7657 33.6116 19.6272 33.8058 19.4609 33.9862C19.2872 34.1747 19.1195 34.3078 18.9916 34.3566C18.629 34.4947 18.3566 34.4769 18.3124 34.468C18.1133 34.4279 17.9199 34.5594 17.8805 34.7617Z" fill="#14004B"/>
</g>
<g id="&#208;&#176;&#209;&#129;&#209;&#130;&#209;&#128;&#208;&#190;&#208;&#189;&#208;&#176;&#208;&#178;&#209;&#130; 3" opacity="0.1">
<path id="Vector 234240872_2" d="M65.9312 47.1716C66.0652 48.5585 65.3417 50.4169 63.8482 51.1319C63.6085 51.2467 63.5608 51.6336 63.7992 51.7511C66.1654 52.9176 71.4368 55.2521 72.6983 55.0762C74.0409 54.889 76.3422 52.8849 75.4954 50.1528C75.4699 50.0707 75.4061 50.0058 75.3261 49.9776L66.344 46.8087C66.1292 46.7329 65.909 46.9416 65.9312 47.1716Z" fill="#4164EE"/>
<path id="Vector 234240873 (Stroke)_2" fill-rule="evenodd" clip-rule="evenodd" d="M63.0818 54.5401C63.0494 55.4177 62.8187 56.5368 62.2322 57.531C61.6038 58.5962 60.5679 59.5131 58.9626 59.8194L58.4564 60.7194C58.9984 60.8415 59.6801 60.694 60.4075 60.3083C61.1951 59.8908 61.9778 59.2233 62.5858 58.4624C63.1972 57.6972 63.6049 56.8718 63.6914 56.1473C63.7673 55.5115 63.6 54.9561 63.0818 54.5401ZM62.6548 53.7966C62.8393 53.6763 63.0965 53.648 63.3215 53.7968C64.232 54.3988 64.5335 55.296 64.421 56.2373C64.3118 57.1517 63.817 58.1063 63.1564 58.9331C62.4924 59.7641 61.6336 60.5007 60.7475 60.9705C59.8713 61.4349 58.908 61.6688 58.0708 61.3849C57.6634 61.2467 57.5741 60.7831 57.7461 60.4773L58.3442 59.4137C58.4434 59.2374 58.6142 59.1247 58.797 59.091C60.1889 58.8343 61.0642 58.0583 61.6017 57.1471C62.1461 56.2244 62.3447 55.1585 62.3507 54.3601C62.3525 54.1207 62.4763 53.913 62.6548 53.7966Z" fill="#14004B"/>
<path id="Vector 234240874 (Stroke)_2" fill-rule="evenodd" clip-rule="evenodd" d="M71.4424 57.9053C69.9712 58.8502 68.2655 61.213 69.1317 64.2661L68.2146 64.9949C67.8184 64.5816 67.6069 63.8904 67.5995 63.0273C67.5917 62.1234 67.8103 61.1004 68.1954 60.1896C68.5825 59.2739 69.1202 58.5125 69.7193 58.0921C70.2519 57.7185 70.8272 57.6126 71.4424 57.9053ZM72.2681 57.9392C72.2866 57.7203 72.1962 57.4743 71.9614 57.3383C71.0085 56.7863 70.0774 56.9333 69.3016 57.4776C68.5478 58.0065 67.9381 58.906 67.52 59.8948C67.0999 60.8886 66.8558 62.0139 66.8645 63.0338C66.8732 64.0422 67.1316 65.0195 67.7999 65.6247C68.0422 65.8441 68.3784 65.8127 68.5941 65.6413L69.6302 64.8181C69.8483 64.6448 69.9249 64.3573 69.851 64.1046C69.0481 61.3586 70.6378 59.2473 71.9335 58.4757C72.1326 58.3571 72.2502 58.1505 72.2681 57.9392Z" fill="#14004B"/>
<path id="Union_2" fill-rule="evenodd" clip-rule="evenodd" d="M54.6003 39.5374L53.3335 41.1923L53.5982 44.9193L55.3109 44.6707C55.3449 44.6658 55.3787 44.6636 55.4121 44.6641L56.215 40.9616L55.7083 39.5886L54.6003 39.5374ZM52.8752 45.1142L52.8754 45.1172C52.712 45.2512 52.6166 45.4634 52.6383 45.6905L53.3545 53.2103C53.3689 53.3616 53.4346 53.5031 53.5404 53.6105L58.3115 58.4584L56.5533 63.2225L52.9025 66.0664C52.8679 66.0933 52.8361 66.1238 52.8076 66.1572L49.7381 69.7559L44.46 67.7299C44.2869 67.6634 44.094 67.6757 43.9304 67.7637L40.0056 69.8749C39.7126 70.0325 39.5849 70.3903 39.7105 70.7021L40.6453 73.0239C40.7727 73.3403 41.1181 73.504 41.4386 73.3998L44.1636 72.5138L49.1365 75.6418C49.3401 75.7698 49.5966 75.7727 49.8029 75.6494L57.7574 70.8951L59.4581 77.3464L56.29 80.8039L54.0965 81.3611C53.8146 81.4327 53.6146 81.687 53.6082 81.9822L53.493 87.2465C53.4859 87.5744 53.7184 87.8572 54.0372 87.9083L55.912 88.2091C56.2555 88.2642 56.5802 88.0326 56.6458 87.6856L57.1846 84.8389L64.3793 81.6711C64.5826 81.5815 64.7265 81.3921 64.7602 81.1695L66.2339 71.4364L68.3029 65.7481L71.255 64.0683L77.3526 63.2009C77.4958 63.1805 77.6282 63.1118 77.7284 63.0058L83.3834 57.0204C83.4151 56.9869 83.4424 56.9512 83.4655 56.914C83.473 56.906 83.4803 56.8976 83.4872 56.8889L85.7215 54.0684C85.8342 53.926 85.8834 53.7423 85.857 53.5615L85.6176 51.9197C85.5846 51.6933 85.4376 51.5007 85.23 51.4119L84.1633 50.9556C83.987 50.8801 83.7868 50.8882 83.6168 50.9775L81.7795 51.9431C81.6621 52.0048 81.5662 52.1016 81.5048 52.2205L80.1441 54.8539C80.016 54.8662 79.892 54.9174 79.79 55.0045L76.8872 57.482H72.3381L71.6014 56.3177C72.4126 56.0972 73.4583 55.6868 74.3548 55.0494C75.2877 54.386 76.1028 53.4436 76.2588 52.1762C76.4537 50.5915 76.2612 48.8309 75.5519 47.3393C74.8383 45.8385 73.5989 44.6094 71.7257 44.1336C69.9103 43.6724 67.9895 43.7351 66.3966 44.3025C64.8031 44.87 63.5023 45.9589 63.0203 47.568L62.9756 47.7172C62.5934 48.9918 62.2947 49.9882 62.2826 50.8943C62.27 51.8406 62.5662 52.6675 63.2886 53.625L61.0967 53.9034L57.5599 51.1483L56.0435 45.2222C56.0444 45.2186 56.0453 45.2149 56.0461 45.2113L56.9385 41.0958C56.9653 40.9722 56.9563 40.8433 56.9126 40.7247L56.3756 39.2698C56.285 39.0242 56.0589 38.8572 55.8011 38.8453L54.5871 38.7892C54.378 38.7795 54.1773 38.8736 54.0488 39.0415L52.7321 40.7616C52.6342 40.8894 52.5865 41.0495 52.5979 41.211L52.8752 45.1142ZM80.8664 55.0628L83.1497 55.9551C83.1838 55.9684 83.216 55.9842 83.2462 56.0021L85.1242 53.6313L84.898 52.0802L83.917 51.6605L82.1424 52.5932L80.8664 55.0628ZM66.6397 45.0073C65.1965 45.5212 64.1181 46.4681 63.7235 47.7854L63.705 47.8471C63.2989 49.2026 63.0282 50.1065 63.0176 50.9044C63.0073 51.6734 63.2419 52.3645 63.9485 53.2704C64.2532 53.6611 64.0465 54.2813 63.5227 54.3479L61.1512 54.6491C60.983 54.6704 60.8133 54.6237 60.6788 54.5189L57.0881 51.7218C56.9741 51.633 56.8925 51.508 56.8564 51.3667L55.3351 45.4216L53.3781 45.7057L54.0829 53.1057L58.8723 57.972C59.0511 58.1537 59.1089 58.4248 59.0201 58.6654L57.2324 63.5093C57.19 63.6241 57.1167 63.7246 57.0209 63.7992L53.357 66.6534L50.2524 70.2932C50.0754 70.5007 49.7899 70.5741 49.5372 70.477L44.2383 68.4431L40.4217 70.4961L41.294 72.6627L43.9792 71.7897C44.1589 71.7312 44.3548 71.7557 44.5152 71.8566L49.4772 74.9777L57.4868 70.1904C57.8542 69.9708 58.3264 70.1673 58.4367 70.5856L60.181 77.2022C60.2385 77.4202 60.1814 77.653 60.03 77.8182L56.8097 81.3327C56.7247 81.4254 56.6151 81.4911 56.4941 81.5218L54.3415 82.0687L54.2296 87.1831L55.9405 87.4576L56.4718 84.6503C56.5121 84.4377 56.6531 84.259 56.8487 84.1729L64.0413 81.0059L65.5089 71.3136C65.5155 71.2701 65.5263 71.2274 65.5414 71.1861L67.625 65.4575C67.6782 65.3113 67.7809 65.1891 67.9148 65.1129L70.9106 63.4083C70.9805 63.3686 71.057 63.3424 71.1363 63.3311L77.2198 62.4657L82.7593 56.6026L80.222 55.6111L77.3348 58.0753C77.2186 58.1745 77.0718 58.2289 76.9201 58.2289H72.2889C72.0694 58.2289 71.8651 58.1155 71.7464 57.9279L70.9226 56.6258C70.6738 56.2326 70.8975 55.7297 71.3179 55.621C72.0837 55.4231 73.0917 55.0359 73.9334 54.4375C74.7768 53.8378 75.4094 53.0592 75.5294 52.0836C75.7101 50.6147 75.527 49.0036 74.8901 47.6642C74.2576 46.3341 73.1804 45.2729 71.5474 44.8581C69.8566 44.4286 68.0833 44.4931 66.6397 45.0073Z" fill="#14004B"/>
</g>
<g id="Group 335681">
<path id="Ellipse 4225 (Stroke)" fill-rule="evenodd" clip-rule="evenodd" d="M84.2481 71.0567C100.064 71.0567 112.885 58.0292 112.885 41.959C112.885 25.8887 100.064 12.8612 84.2481 12.8612C68.432 12.8612 55.6106 25.8887 55.6106 41.959C55.6106 58.0292 68.432 71.0567 84.2481 71.0567ZM84.2481 71.6203C100.37 71.6203 113.44 58.3405 113.44 41.959C113.44 25.5775 100.37 12.2976 84.2481 12.2976C68.1257 12.2976 55.0559 25.5775 55.0559 41.959C55.0559 58.3405 68.1257 71.6203 84.2481 71.6203Z" fill="#14004B"/>
<path id="Vector 234241006 (Stroke)" fill-rule="evenodd" clip-rule="evenodd" d="M80.3765 10.733C87.3517 9.68504 94.9559 10.856 101.476 16.0208C110.273 22.9885 113.75 29.455 114.879 35.2164C115.801 39.9171 115.15 44.1343 114.601 47.6933C114.48 48.4807 114.363 49.236 114.27 49.9571C114.002 52.0289 112.622 55.2912 110.283 58.715C107.94 62.1467 104.613 65.7697 100.417 68.5537C96.2206 71.3388 91.1514 73.2863 85.3305 73.3563C79.5088 73.4265 72.9555 71.6183 65.7921 66.9254C49.4214 56.2004 49.1621 31.4929 62.9826 18.7819C67.0458 15.0448 73.4067 11.7802 80.3765 10.733ZM80.4577 11.2906C73.5941 12.3218 67.3351 15.539 63.3549 19.1997C49.7697 31.6943 50.0674 55.953 66.0927 66.4517C73.1786 71.0939 79.6266 72.8614 85.324 72.7928C91.0222 72.7241 95.99 70.8186 100.114 68.0818C104.24 65.344 107.517 61.7762 109.828 58.3936C112.144 55.0031 113.468 51.8277 113.72 49.8836C113.816 49.1417 113.935 48.372 114.057 47.5749C114.604 44.0189 115.235 39.9192 114.335 35.3265C113.238 29.725 109.851 23.3688 101.135 16.4653C94.7585 11.4143 87.3159 10.2602 80.4577 11.2906Z" fill="#14004B"/>
</g>
</g>
</g>
<defs>
<clipPath id="clip0_906_59102">
<rect width="166" height="93" fill="white" transform="translate(0 0.5)"/>
</clipPath>
</defs>
</svg>
