<svg width="20" height="20" viewBox="0 0 20 20" fill="none" xmlns="http://www.w3.org/2000/svg">
<g id="Icon 20">
<g id="Vector">
<path fill-rule="evenodd" clip-rule="evenodd" d="M0.25 4C0.25 2.48122 1.48122 1.25 3 1.25H10C11.5188 1.25 12.75 2.48122 12.75 4V6.75664C12.75 8.27542 11.5188 9.50663 10 9.50663H7.9016C7.5433 9.50663 7.20222 9.66039 6.96495 9.92888L5.56132 11.5172C4.49409 12.7248 2.5 11.97 2.5 10.3583V9.50663C1.25736 9.50663 0.25 8.49928 0.25 7.25663V4ZM3 2.75C2.30964 2.75 1.75 3.30964 1.75 4V7.25663C1.75 7.67085 2.08579 8.00663 2.5 8.00663C3.32843 8.00663 4 8.67821 4 9.50663V10.3583C4 10.5886 4.28487 10.6964 4.43733 10.5239L5.84096 8.93558C6.36296 8.3449 7.11333 8.00663 7.9016 8.00663H10C10.6904 8.00663 11.25 7.44699 11.25 6.75664V4C11.25 3.30964 10.6904 2.75 10 2.75H3Z" fill="#19191A"/>
<path fill-rule="evenodd" clip-rule="evenodd" d="M17 8.75C17.6904 8.75 18.25 9.30964 18.25 10V13.2566C18.25 13.6708 17.9142 14.0066 17.5 14.0066C16.6716 14.0066 16 14.6782 16 15.5066V16.3583C16 16.5886 15.7151 16.6964 15.5627 16.5239L14.159 14.9356C13.637 14.3449 12.8867 14.0066 12.0984 14.0066H10C9.30964 14.0066 8.75 13.447 8.75 12.7566V11.3783C8.75 10.9641 8.41421 10.6283 8 10.6283C7.58579 10.6283 7.25 10.9641 7.25 11.3783V12.7566C7.25 14.2754 8.48122 15.5066 10 15.5066H12.0984C12.4567 15.5066 12.7978 15.6604 13.0351 15.9289L14.4387 17.5172C15.5059 18.7248 17.5 17.97 17.5 16.3583V15.5066C18.7426 15.5066 19.75 14.4993 19.75 13.2566V10C19.75 8.48122 18.5188 7.25 17 7.25H14.875C14.4608 7.25 14.125 7.58579 14.125 8C14.125 8.41422 14.4608 8.75 14.875 8.75H17Z" fill="#19191A"/>
</g>
</g>
</svg>
