<svg width="24" height="24" viewBox="0 0 24 24" fill="none" xmlns="http://www.w3.org/2000/svg">
<g id="Exit">
<path id="Vector" fill-rule="evenodd" clip-rule="evenodd" d="M4.94998 3.91169C4.37008 3.91169 3.89998 4.3818 3.89998 4.96169V16.542C3.89998 16.9081 4.09066 17.2478 4.4032 17.4384L8.49538 19.9345C9.18236 20.3535 10.0922 19.854 10.0922 19.0195V7.50793C10.0922 7.14779 9.90758 6.81277 9.60315 6.62035L5.31753 3.91169H4.94998ZM8.68662 3.91169H15.0656C15.6455 3.91169 16.1156 4.3818 16.1156 4.96169V6.01169C16.1156 6.50875 16.5185 6.91169 17.0156 6.91169C17.5127 6.91169 17.9156 6.50875 17.9156 6.01169V4.96169C17.9156 3.38768 16.6396 2.11169 15.0656 2.11169H4.94998C3.37596 2.11169 2.09998 3.38768 2.09998 4.96169V16.542C2.09998 17.5357 2.61754 18.4576 3.46586 18.9751L7.55805 21.4712C9.19443 22.4693 11.2047 21.5815 11.75 19.9195H15.0656C16.6396 19.9195 17.9156 18.6435 17.9156 17.0695V16.0195C17.9156 15.5224 17.5127 15.1195 17.0156 15.1195C16.5185 15.1195 16.1156 15.5224 16.1156 16.0195V17.0695C16.1156 17.6494 15.6455 18.1195 15.0656 18.1195H11.8922V7.50793C11.8922 6.53039 11.3912 5.62106 10.5648 5.09879L8.68662 3.91169ZM18.3615 8.36758C18.714 8.01714 19.2839 8.0188 19.6343 8.3713L21.5241 10.2722C21.7517 10.4355 21.9 10.7024 21.9 11.0039C21.9 11.1497 21.8653 11.2874 21.8037 11.4093C21.7609 11.4973 21.7028 11.5799 21.6296 11.6529L19.6257 13.651C19.2737 14.0019 18.7038 14.0011 18.3529 13.6491C18.0019 13.2971 18.0028 12.7273 18.3547 12.3763L18.8286 11.9039H14.9941C14.4971 11.9039 14.0941 11.5009 14.0941 11.0039C14.0941 10.5068 14.4971 10.1039 14.9941 10.1039H18.8186L18.3578 9.64037C18.0074 9.28787 18.009 8.71802 18.3615 8.36758Z" fill="#19191A"/>
</g>
</svg>
