<svg width="24" height="24" viewBox="0 0 24 24" fill="none" xmlns="http://www.w3.org/2000/svg">
<g id="Icon 24">
<path id="Vector" fill-rule="evenodd" clip-rule="evenodd" d="M14.3947 2.92183C12.9864 1.82584 11.0143 1.82622 9.6056 2.92177L14.3947 2.92183ZM14.3947 2.92183L20.3943 7.58855C20.3942 7.58845 20.3944 7.58864 20.3943 7.58855C21.3449 8.32737 21.9001 9.46402 21.9001 10.6672V18.0002C21.9001 20.1543 20.1542 21.9002 18.0001 21.9002H6.0001C3.84604 21.9002 2.1001 20.1543 2.1001 18.0002V10.6672C2.1001 9.46402 2.65491 8.32765 3.60553 7.58883C3.60541 7.58892 3.60565 7.58873 3.60553 7.58883L9.6056 2.92177M10.7107 4.34262C11.4698 3.75229 12.5316 3.75263 13.2893 4.34243L19.2895 9.00962C19.8007 9.40681 20.1001 10.0186 20.1001 10.6672V18.0002C20.1001 19.1602 19.16 20.1002 18.0001 20.1002H6.0001C4.84015 20.1002 3.9001 19.1602 3.9001 18.0002V10.6672C3.9001 10.0186 4.19914 9.40709 4.71031 9.0099L10.7107 4.34262C10.7107 4.34261 10.7106 4.34264 10.7107 4.34262ZM8.1001 17.0002C8.1001 16.5032 8.50304 16.1002 9.0001 16.1002H15.0001C15.4972 16.1002 15.9001 16.5032 15.9001 17.0002C15.9001 17.4973 15.4972 17.9002 15.0001 17.9002H9.0001C8.50304 17.9002 8.1001 17.4973 8.1001 17.0002Z" fill="#19191A"/>
</g>
</svg>
