<svg width="48" height="48" viewBox="0 0 48 48" fill="none" xmlns="http://www.w3.org/2000/svg">
<g id="Logo Rowi">
<g id="Mask group">
<mask id="mask0_906_57382" style="mask-type:alpha" maskUnits="userSpaceOnUse" x="8" y="2" width="33" height="44">
<g id="Group 335511">
<path id="Vector" d="M39.9542 7.3449H40.2175C40.2839 8.33957 40.4159 9.32862 40.6125 10.3054C40.7298 10.9904 40.458 12.2907 40.1746 12.6622C40.2505 12.9772 40.2564 13.3054 40.1918 13.6229C39.0126 19.6253 34.8512 23.1866 31.1507 26.5476C29.4706 28.0743 27.659 29.7781 25.6441 30.9014C26.2165 32.2104 27.3613 33.2436 28.1055 34.3843C28.7895 35.435 29.505 36.3696 30.2548 37.3535L30.5926 37.5277C30.956 38.0008 31.2537 38.5552 31.7173 38.9267C31.634 39.0642 31.5649 39.2101 31.5113 39.362H31.5971C31.6429 39.2634 31.7288 38.9528 31.786 39.1879H31.8747V39.275C31.9263 39.4085 31.8747 39.275 31.8547 39.5362H32.118C31.9635 40.3837 32.1867 40.2299 32.4643 40.7581C32.4643 40.7581 32.2439 41.6289 32.3069 41.7189V41.8088L32.4901 41.7189C32.5434 41.5663 32.6135 41.4202 32.699 41.2835V41.3706C32.9709 41.7827 32.679 43.1585 32.387 43.2049C32.304 43.1353 32.367 43.173 32.2182 43.1178C32.2356 42.9412 32.2191 42.7628 32.1695 42.5925H32.0837C31.9892 42.8827 32.1152 42.726 31.8862 42.8566V42.7666C31.6687 42.517 31.683 42.2877 31.3138 42.1571V42.3313C31.497 42.5403 31.4082 42.3603 31.3768 42.6796H31.5513C31.6458 42.6099 31.5771 42.6506 31.7345 42.5925C31.6458 43.0366 32.2096 43.6896 32.0694 43.9915C31.9749 44.0611 32.0436 44.0205 31.8862 44.0786L31.9062 43.8144C31.4082 43.8551 31.62 43.7941 31.3052 43.6403C31.1592 43.5677 31.2251 43.7564 31.205 43.8144L30.9474 43.7274L30.9274 43.9915C31.122 44.1076 31.0791 44.096 31.0905 44.1656C31.0398 44.2525 30.9724 44.3281 30.8922 44.3879C30.8121 44.4478 30.7209 44.4906 30.624 44.5139V44.601C30.9102 44.6649 30.9102 44.7432 31.1306 44.8622C31.0963 44.9522 31.0591 45.0393 31.0247 45.1264C30.8259 45.2687 30.6106 45.3857 30.3836 45.4747V45.3876C30.3264 45.2947 30.3378 45.3063 30.3149 45.1264C30.2033 45.0364 30.3464 45.0683 30.4237 44.8622C30.335 44.7839 30.4237 44.8622 30.3436 44.7752C30.0888 44.9319 29.9887 44.9261 29.7969 45.0393C29.7225 45.1322 29.7368 45.1206 29.6882 45.3005H30.1289C30.171 45.4415 30.1894 45.5887 30.1833 45.7359H30.0058C29.6137 45.4253 28.8267 45.376 28.7294 45.2134C28.5319 45.0306 28.7036 45.0596 28.5806 44.8622C28.2257 45.077 28.0797 44.7926 27.8021 44.6881V44.8622C27.9824 45.0074 27.9595 45.1118 28.2142 45.2134C28.3602 45.3557 28.4231 45.3644 28.7265 45.3876C28.6807 45.5675 28.695 45.5559 28.6206 45.6488C28.313 45.4185 27.9696 45.2419 27.6046 45.1264L27.5874 45.3876C27.9166 45.5559 28.1427 45.7475 28.5147 45.91V46H28.4289C27.9438 45.963 27.4737 45.813 27.0551 45.5617C27.2869 45.434 27.1524 45.582 27.2497 45.3005H27.0751C26.8977 45.5153 27.0751 45.5704 26.6973 45.6488C26.6345 45.4514 26.5289 45.2707 26.3883 45.12C26.2476 44.9693 26.0755 44.8525 25.8845 44.7781C25.8845 45.0364 26.0477 44.958 25.77 45.1293C25.3694 44.3688 24.5394 43.9857 23.9698 43.3878C23.1935 42.5538 22.4968 41.6471 21.8891 40.6798C21.7947 40.5317 21.4913 40.4824 21.3883 40.3315C21.2108 40.0732 21.1794 39.8206 21.0076 39.5449L20.4352 39.0196C19.9201 38.2388 18.4146 35.4408 17.7421 35.0896V35.1767C17.4129 35.6295 17.5389 36.2999 17.3471 36.9182C16.8549 38.6045 16.4922 40.3269 16.2624 42.0701H15.8531V42.1571C16.002 42.2935 15.9705 42.2355 16.002 42.5083C15.5584 42.7144 15.7816 43.144 15.2407 43.292L15.2092 43.7303H15.1205C15.0375 43.6606 15.1004 43.6983 14.9516 43.6432L14.8829 43.382C14.9605 43.3691 15.0342 43.3387 15.0986 43.2929C15.1631 43.2472 15.2165 43.1874 15.255 43.1178H14.9917C14.8915 43.2978 14.7827 43.62 14.5938 43.7303C14.5423 43.44 14.6482 43.5968 14.4393 43.469C14.7112 44.4182 13.7696 45.3411 13.0541 45.5646V45.3876C13.1286 45.3387 13.1924 45.2748 13.2416 45.1999C13.2908 45.1251 13.3244 45.0408 13.3403 44.9522C13.2516 44.8738 13.3403 44.9522 13.2601 44.8651C12.9739 45.0335 12.9425 44.9522 12.5446 45.0393L12.559 44.8651C12.6923 44.7486 12.7914 44.5969 12.8452 44.4269C12.7564 44.3485 12.8452 44.4269 12.765 44.3398H12.5876C12.5511 44.6847 12.446 45.0184 12.2785 45.3208C12.1897 45.2425 12.2785 45.3208 12.1983 45.2337C12.0953 45.0248 12.1697 44.8622 12.0667 44.6242H11.8921C11.8998 44.9219 11.8483 45.218 11.7404 45.495L11.5572 45.5849V45.495C11.4714 45.3324 11.5315 44.8709 11.4428 44.7113C11.2768 44.8158 11.2882 44.7113 11.1709 44.7984H11.085C11.1853 44.9292 11.2627 45.0764 11.314 45.2337C11.105 45.2018 11.1823 45.1786 10.9619 45.2337C11.0821 45.4514 11.2081 45.4543 11.1079 45.672C11.0077 45.7359 11.0192 45.7243 10.8217 45.7591C10.7444 45.4166 10.8217 45.0944 10.4468 44.8884C10.3638 44.8187 10.4267 44.8564 10.2779 44.8013V44.9754C10.4124 45.0915 10.3724 45.0306 10.4325 45.2367H10.3466C10.2464 45.167 10.2035 45.1699 10.0003 45.1496C9.73413 44.6533 9.38497 44.1831 9.239 43.5764C9.40332 43.5121 9.53804 43.3879 9.61679 43.2281L9.86865 43.4023C9.82399 43.2639 9.74943 43.1373 9.6504 43.0319C9.55137 42.9264 9.43038 42.8447 9.29624 42.7928C9.15087 42.8642 8.99955 42.9225 8.84404 42.9669V43.1411C9.01449 43.247 9.15384 43.3974 9.24759 43.5764C8.98048 43.5855 8.71446 43.6155 8.45195 43.6664L8.38326 43.4023C8.56929 43.3704 8.55498 43.382 8.65515 43.3152C8.36895 43.2165 8.36895 43.2165 8.3346 42.8798H8.68663C8.77299 42.7113 8.84481 42.5356 8.90129 42.3545H8.7267C8.59505 42.6273 8.4405 42.6447 8.2745 42.5286C8.2144 42.4358 8.22585 42.4474 8.20581 42.2674C8.49202 42.1949 8.33747 42.311 8.49202 42.0933H8.40329V42.0062H8.31457C8.22299 42.0613 8.28309 42.1949 8.22012 42.0933C8.15716 41.9917 8.17433 42.0091 8.1543 41.8321C8.49202 41.3677 8.04268 40.8742 8.28309 40.0906C8.73529 38.6074 8.5836 37.6148 9.01577 36.1606C9.92875 33.084 10.753 28.1643 12.3185 24.8091L12.3844 23.9383L12.6706 23.7642C12.7994 23.4971 12.7478 23.0008 12.828 22.8035C12.951 22.8876 12.9968 23.114 13.0798 22.9776H13.1657C12.6334 22.1069 13.7639 20.6295 13.8469 19.7472C13.7753 19.5991 14.6826 17.1988 14.8572 16.7779C15.2063 15.9391 15.358 15.1351 15.7358 14.4182C16.0077 13.9074 15.8503 13.0773 16.1365 12.5868C16.52 11.925 17.3671 9.48112 17.5847 8.47976L17.7535 8.56974V8.47976C17.6505 8.18952 18.552 7.00531 18.7066 6.29711C19.0157 6.31452 19.196 6.41611 19.2275 6.38418C19.3963 6.24776 19.3534 6.30872 19.4278 6.03588H19.2532C19.1588 6.10554 19.2275 6.06781 19.0701 6.12296V5.94881H19.3334C19.3763 5.77466 19.4164 5.60051 19.4593 5.42346H19.8113C19.8571 5.24061 19.8457 5.25512 19.9172 5.15934C20.9933 4.20152 22.2841 3.18856 24.1559 3.67618C24.8571 3.40044 25.5039 2.81995 26.1593 2.54131C26.6401 2.34104 26.8319 2.6487 27.3041 2.54131C27.5302 2.48907 27.8307 2.22784 28.031 2.19301C28.3172 2.14077 28.3516 2.48326 28.7208 2.36716C29.1673 2.23365 29.7053 2.04208 30.0574 2.10304C31.5284 2.36426 33.0081 1.68798 34.442 2.19301C35.0745 2.4165 35.3206 2.89831 35.7671 3.24081C36.1592 3.53105 36.8976 3.38303 37.3155 3.67618C37.6188 3.89096 37.739 4.42792 38.0338 4.63689L38.3028 4.54982C38.3744 4.61367 38.28 4.84007 38.3658 4.90102C38.4517 4.96197 38.9382 4.91553 39.1443 5.07517C39.2473 5.15644 39.2473 5.30446 39.4677 5.42346C39.5679 6.09103 39.9027 6.57284 39.9542 7.3449ZM8.86694 40.4331C9.01004 40.5492 8.99573 40.584 9.12452 40.5201H9.21038V40.4331H8.86694ZM9.03294 44.1018H8.59219L8.6065 43.9276C8.77913 43.8829 8.93708 43.7928 9.06442 43.6664L9.03294 44.1018ZM8.96711 42.6186L8.9528 42.7928H9.04152V42.6186H8.96711ZM8.93849 44.1889C9.05673 44.1996 9.1726 44.229 9.28193 44.2759L9.26762 44.4501H9.00432V44.363C8.94708 44.2701 8.98428 44.3369 8.93849 44.186V44.1889ZM9.11021 43.054C9.22881 43.0626 9.34502 43.0921 9.45366 43.1411V43.3152H9.09018L9.11021 43.054ZM9.76562 43.6664V43.8406C9.90299 43.7332 9.86292 43.7999 9.76562 43.6635V43.6664ZM9.90872 44.1018V44.2759H10.0833V44.1889L9.90872 44.1018ZM10.0947 42.7928C10.0589 42.9679 10.0758 43.15 10.1434 43.3152C10.18 43.1391 10.1631 42.9559 10.0947 42.7899V42.7928ZM10.3409 44.1889V44.363H10.5155L10.5298 44.1889H10.3409ZM10.7387 43.5764V43.7535H10.8246C10.7702 43.5968 10.8017 43.6635 10.7387 43.5735V43.5764ZM12.0695 26.8988L12.0552 27.073H12.144V26.8988H12.0695ZM10.8761 44.0989C10.8503 44.3514 10.7816 44.2208 10.856 44.3601C10.9534 44.4298 10.9991 44.4298 11.1995 44.4472V44.3601C11.0999 44.263 10.9917 44.1756 10.8761 44.0989ZM11.3197 44.0118C11.4227 44.334 11.3025 44.424 11.6317 44.5372V44.4472C11.5687 44.3456 11.5744 44.3021 11.5687 44.0989L11.3197 44.0118ZM11.7232 45.672C11.6288 45.9623 11.7576 45.8055 11.5286 45.9332V45.8462C11.4657 45.7562 11.5 45.8229 11.4542 45.672H11.7232ZM12.0495 43.6635C11.9599 43.9152 11.9107 44.1797 11.9035 44.4472C11.9923 44.5284 11.9035 44.4472 11.9837 44.5372H12.1583L12.1869 44.186C12.2928 44.0147 12.1983 43.8231 12.0495 43.6635ZM12.8709 43.2252C13.0111 43.3239 12.9539 43.382 13.0484 43.2252H12.8709ZM12.8165 45.1467C13.0312 45.2744 12.9167 45.1293 12.9739 45.4079C12.8967 45.4979 12.9396 45.434 12.8709 45.5849C12.7822 45.5037 12.8709 45.5849 12.7908 45.4979C12.7106 45.4108 12.7622 45.4717 12.7164 45.3208C12.7936 45.2337 12.7478 45.2976 12.8165 45.1467ZM13.3346 44.0989V44.273H13.5091V44.186L13.3346 44.0989ZM13.2945 44.6242V44.7984H13.3832C13.326 44.6445 13.3575 44.7142 13.2945 44.6242ZM13.6179 43.8377V44.0118H13.7066V43.8377H13.6179ZM13.9556 44.0118C13.8554 44.2875 13.7209 44.5604 13.6265 44.8825H13.8011V44.7084C13.8869 44.6176 13.9467 44.5047 13.974 44.3819C14.0012 44.2592 13.9949 44.1312 13.9556 44.0118ZM14.8514 43.7506C14.9373 43.9218 14.8915 43.9073 14.8257 44.0989H14.7398V43.9247C14.8285 43.8348 14.7856 43.916 14.8543 43.7506H14.8514ZM15.5297 41.7421V41.9162H15.6185V41.7421H15.5297ZM15.5011 42.0904C15.5031 42.2101 15.5244 42.3288 15.5641 42.4416C15.6413 42.3516 15.5984 42.4154 15.6642 42.2645H15.753C15.8474 42.1774 15.6728 42.1803 15.6728 42.1774C15.587 42.1078 15.6499 42.1484 15.5011 42.0904ZM19.528 5.76305V5.9372H19.6167V5.76305H19.528ZM21.394 4.27699L21.3797 4.45114H21.643V4.27699H21.394ZM20.1118 23.8396V24.0138H20.2006V23.8396H20.1118ZM20.2177 23.5784V23.7526H20.2921V23.5784H20.2177ZM20.8645 24.275H21.2166C21.58 23.6626 23.3545 22.8238 23.9956 22.3565C25.3923 21.3029 26.6487 20.0345 28.0225 18.949C28.509 18.5629 28.8439 17.907 29.3562 17.5529L29.3762 17.2917C29.5594 17.2568 29.5479 17.2684 29.6452 17.2046C30.9503 15.8056 32.5616 12.8335 31.9778 10.6537C31.2823 10.7118 30.2892 10.1197 29.1873 10.3925C28.2715 10.6189 27.7563 11.1558 26.8347 11.3532C26.7632 11.0833 26.7689 11.0978 26.5085 11.002C26.2222 11.3851 25.1833 11.6202 25.0374 11.8728C24.299 12.8248 24.3562 14.1802 23.8096 15.4718C23.738 15.6373 23.4718 15.852 23.4175 15.9943C23.4375 16.1394 23.4547 16.2845 23.4747 16.4325C23.074 17.6167 22.5331 19.2073 22.0265 20.5366L21.8748 21.4074C21.5314 22.2288 20.9819 23.2911 20.8645 24.275ZM22.7077 16.0668L22.5932 16.418H22.6819V16.241C22.7363 16.18 22.8107 16.241 22.7821 16.0668H22.7077ZM25.8559 3.14212C25.9418 3.21468 25.8788 3.17405 26.0248 3.22919C25.9532 3.15954 26.0162 3.20017 25.8674 3.14212H25.8559ZM26.3052 45.4108H26.4827V45.4979H26.3024L26.3052 45.4108ZM27.4501 44.363C27.556 44.5052 27.4987 44.4588 27.6991 44.5372V44.4501L27.4501 44.363ZM28.944 45.4979L29.2016 45.5849V45.672H29.1072V45.7591C29.0184 45.6807 29.1072 45.7591 29.0242 45.672C28.9412 45.5849 28.9898 45.6575 28.944 45.4979ZM29.4506 44.7113C29.5336 44.7839 29.4735 44.7432 29.6195 44.7984C29.5279 44.7287 29.5909 44.7694 29.4506 44.7113ZM30.4952 43.6635C30.4008 43.8551 30.4094 43.7912 30.3006 43.9276H30.4752C30.5954 43.6838 30.6469 43.858 30.4867 43.6635H30.4952ZM30.6155 43.2281L30.6011 43.4023H30.8645V43.2281H30.6155ZM33.8295 2.35845V2.5326C33.964 2.42811 33.9268 2.49777 33.8295 2.35845ZM34.173 2.44553V2.61968H34.2617V2.44553H34.173ZM34.4592 3.14502C34.545 3.21468 34.482 3.17405 34.6309 3.2321C34.5565 3.16244 34.6194 3.20017 34.4706 3.14502H34.4592ZM31.6229 43.5764V43.7506H31.7116C31.6658 43.5997 31.6973 43.6664 31.6343 43.5764H31.6229ZM34.7167 3.2321V3.40625H34.98V3.31917L34.7167 3.2321ZM32.0837 39.9106H32.2583C32.1438 40.0499 32.2125 40.0151 32.0837 39.9106ZM31.849 43.0453C31.9119 43.1324 31.8776 43.0685 31.9234 43.2194H31.8347L31.849 43.0453ZM32.1008 41.9975L32.0694 42.4329H32.1581C32.3269 42.3574 32.2268 42.3922 32.4214 42.4329L32.4414 42.1716C32.3197 42.136 32.2046 42.0801 32.1008 42.0062V41.9975ZM32.181 43.3065H32.3556C32.2411 43.4545 32.3126 43.4226 32.181 43.3152V43.3065ZM38.1655 5.41475C38.2971 5.60051 38.3973 5.67888 38.4975 5.67598C38.5747 5.5889 38.5318 5.65276 38.5976 5.50183H38.4231C38.3229 5.43798 38.3429 5.44958 38.1655 5.41475ZM39.399 13.6229C39.3618 13.7129 39.3246 13.7971 39.2902 13.8871H39.5536V13.7971C39.4877 13.7303 39.4677 13.6897 39.399 13.6229ZM39.5106 13.2746V13.4488H39.5965V13.2746H39.5106ZM39.8369 11.2661C39.793 11.4702 39.8079 11.6828 39.8798 11.8786C39.9239 11.6745 39.909 11.4618 39.8369 11.2661ZM39.8712 11.9656V12.1398H39.9571L39.9714 11.9656H39.8712ZM39.8283 12.5752C39.8455 12.758 39.8283 12.7435 39.8941 12.8393V12.7493C39.9714 12.6622 39.9256 12.7261 39.9943 12.5752H39.8283Z" fill="#19191A"/>
</g>
</mask>
<g mask="url(#mask0_906_57382)">
<rect id="Rectangle 5778" x="-13.8457" y="-52.2662" width="146.667" height="146.667" fill="#19191A"/>
</g>
</g>
</g>
</svg>
