<svg width="24" height="24" viewBox="0 0 24 24" fill="none" xmlns="http://www.w3.org/2000/svg">
<g id="Icon 24">
<path id="Vector" fill-rule="evenodd" clip-rule="evenodd" d="M15.0775 7.47457C12.978 5.37511 9.57415 5.37511 7.47469 7.47457C5.37523 9.57403 5.37523 12.9779 7.47469 15.0774C9.55251 17.1552 12.908 17.1766 15.0122 15.1416C15.0313 15.1182 15.0518 15.0954 15.0737 15.0736C15.0956 15.0517 15.1183 15.0312 15.1417 15.012C17.1767 12.9079 17.1553 9.55239 15.0775 7.47457ZM16.9472 15.6743C19.1361 12.8592 18.9372 8.78864 16.3503 6.20178C13.5479 3.39938 9.0043 3.39938 6.2019 6.20178C3.3995 9.00418 3.3995 13.5478 6.2019 16.3502C8.78877 18.937 12.8593 19.136 15.6744 16.947L18.3637 19.6364C18.7152 19.9878 19.285 19.9878 19.6365 19.6364C19.988 19.2849 19.988 18.715 19.6365 18.3636L16.9472 15.6743Z" fill="#19191A"/>
</g>
</svg>
