<svg width="20" height="20" viewBox="0 0 20 20" fill="none" xmlns="http://www.w3.org/2000/svg">
<g id="Sort">
<path id="Vector" fill-rule="evenodd" clip-rule="evenodd" d="M3.33333 3.79523C3.28755 3.79523 3.25 3.83277 3.25 3.87856V5.62856H16.75V3.87856C16.75 3.83277 16.7125 3.79523 16.6667 3.79523H3.33333ZM15.4284 7.12856L11.1865 10.6632C11.0155 10.8057 10.9167 11.0168 10.9167 11.2394V15.0302C10.9167 15.0619 10.899 15.0902 10.8712 15.104L9.08333 15.998V11.2394C9.08333 11.0168 8.98446 10.8057 8.81345 10.6632L4.57161 7.12856H15.4284ZM1.75 3.87856C1.75 3.00435 2.45912 2.29523 3.33333 2.29523H16.6667C17.5409 2.29523 18.25 3.00435 18.25 3.87856V5.98856C18.25 6.45923 18.0407 6.90427 17.6801 7.20473L12.4167 11.5907V15.0302C12.4167 15.6301 12.0779 16.1784 11.5408 16.4463C11.5407 16.4463 11.5409 16.4462 11.5408 16.4463L9.27124 17.581C8.49644 17.9684 7.58333 17.4059 7.58333 16.5377V11.5907L2.31988 7.20474C1.95902 6.90403 1.75 6.45799 1.75 5.98856V3.87856Z" fill="#1E56C3"/>
</g>
</svg>
