<svg width="24" height="24" viewBox="0 0 24 24" fill="none" xmlns="http://www.w3.org/2000/svg">
<g id="Icon 24">
<path id="Vector" fill-rule="evenodd" clip-rule="evenodd" d="M13.8386 5.1615C12.8232 4.14613 11.177 4.14613 10.1616 5.1615C9.14628 6.17687 9.14628 7.82309 10.1616 8.83846C11.177 9.85383 12.8232 9.85383 13.8386 8.83846C14.854 7.82309 14.854 6.17687 13.8386 5.1615ZM8.88885 3.88871C10.6072 2.1704 13.3931 2.1704 15.1114 3.88871C16.8297 5.60702 16.8297 8.39294 15.1114 10.1113C13.3931 11.8296 10.6072 11.8296 8.88885 10.1113C7.17054 8.39294 7.17054 5.60702 8.88885 3.88871ZM6.02929 14.0914C7.68342 13.1285 9.84544 12.608 12.0001 12.608C14.1548 12.608 16.3168 13.1285 17.9709 14.0914C19.6169 15.0497 20.9001 16.5445 20.9001 18.5V19.5C20.9001 20.549 20.0492 21.4 19.0001 21.4H5.0001C3.95104 21.4 3.1001 20.549 3.1001 19.5V18.5C3.1001 16.5445 4.38327 15.0497 6.02929 14.0914ZM6.9349 15.647C5.59293 16.4283 4.9001 17.4295 4.9001 18.5V19.5C4.9001 19.5549 4.94515 19.6 5.0001 19.6H19.0001C19.055 19.6 19.1001 19.5549 19.1001 19.5V18.5C19.1001 17.4295 18.4073 16.4283 17.0653 15.647C15.7314 14.8705 13.8934 14.408 12.0001 14.408C10.1068 14.408 8.26878 14.8705 6.9349 15.647Z" fill="#19191A"/>
</g>
</svg>
