<svg width="24" height="24" viewBox="0 0 24 24" fill="none" xmlns="http://www.w3.org/2000/svg">
<g id="Item Icon">
<g id="Mask group">
<mask id="mask0_13_28436" style="mask-type:alpha" maskUnits="userSpaceOnUse" x="2" y="2" width="20" height="20">
<g id="Group">
<path id="Path" d="M13.499 13.48C13.361 13.481 13.25 13.593 13.25 13.731C13.25 13.869 13.362 13.981 13.5 13.98C13.638 13.98 13.75 13.868 13.75 13.73C13.75 13.592 13.638 13.48 13.499 13.48" stroke="#323232" stroke-width="1.6" stroke-linecap="round" stroke-linejoin="round"/>
<path id="Path_2" d="M3 6.283V6C3 4.343 4.343 3 6 3H18C19.657 3 21 4.343 21 6V15C21 16.657 19.657 18 18 18H17" stroke="#323232" stroke-width="1.6" stroke-linecap="round" stroke-linejoin="round"/>
<path id="Path_3" d="M21 9H17" stroke="#323232" stroke-width="1.6" stroke-linecap="round" stroke-linejoin="round"/>
<path id="Path_4" fill-rule="evenodd" clip-rule="evenodd" d="M13.325 20.922C15.205 21.356 17 19.928 17 17.999V9.38705C17 7.99005 16.036 6.77805 14.675 6.46405L5.45 4.33505C4.196 4.04505 3 4.99705 3 6.28305V16.152C3 17.549 3.964 18.761 5.325 19.075L13.325 20.922V20.922Z" stroke="#323232" stroke-width="1.6" stroke-linecap="round" stroke-linejoin="round"/>
</g>
</mask>
<g mask="url(#mask0_13_28436)">
<g id="Group_2">
<path id="Vector" d="M0 0H24V24H0V0Z" fill="#19191A"/>
</g>
</g>
</g>
</g>
</svg>
