<svg width="81" height="32" fill="none" xmlns="http://www.w3.org/2000/svg"><g clip-path="url(#clip0_801_903)" fill="#14004B"><path d="M23.416 3.88h.194c.05.723.146 1.441.291 2.15.086.498-.114 1.442-.322 1.712.055.229.06.467.012.697-.868 4.359-3.932 6.945-6.657 9.385-1.237 1.109-2.572 2.346-4.055 3.161.421.95 1.264 1.701 1.812 2.53.504.762 1.03 1.44 1.583 2.155l.249.127c.267.343.486.746.828 1.015-.061.1-.112.206-.152.317h.063c.034-.072.097-.298.14-.127h.065v.063c.038.097 0 0-.015.19h.194c-.114.616.05.504.255.887 0 0-.162.633-.116.698v.065l.135-.065c.04-.11.09-.217.154-.316v.063c.2.3-.015 1.298-.23 1.332-.061-.05-.015-.023-.124-.063a.997.997 0 00-.036-.382h-.063c-.07.211.023.097-.146.192v-.065c-.16-.181-.15-.348-.421-.443v.127c.135.151.07.02.046.253h.129c.07-.051.019-.022.135-.064-.066.323.35.797.246 1.016-.07.05-.019.021-.135.063l.015-.192c-.367.03-.21-.014-.442-.126-.108-.053-.06.084-.074.127l-.19-.064-.015.192c.144.084.112.076.12.127a.544.544 0 01-.343.252v.064c.21.046.21.103.373.19-.025.065-.053.128-.078.191a2.18 2.18 0 01-.472.253v-.063c-.042-.068-.034-.06-.05-.19-.083-.065.023-.042.08-.192-.066-.057 0 0-.06-.063-.187.114-.261.11-.402.192-.055.067-.044.059-.08.19h.324a.937.937 0 01.04.316h-.13c-.289-.226-.869-.262-.94-.38-.146-.132-.02-.111-.11-.255-.261.156-.369-.05-.573-.126v.126c.133.106.116.182.303.255.108.104.154.11.378.127-.034.13-.024.122-.078.19a2.53 2.53 0 00-.748-.38l-.013.19c.242.122.409.261.683.38v.064h-.063a2.329 2.329 0 01-1.012-.318c.17-.092.072.015.143-.19h-.128c-.131.156 0 .197-.279.253a1.008 1.008 0 00-.598-.632c0 .188.12.13-.084.255-.295-.552-.907-.83-1.326-1.264a13.178 13.178 0 01-1.532-1.967c-.07-.107-.293-.143-.369-.253-.13-.187-.154-.37-.28-.57l-.422-.382c-.38-.567-1.488-2.599-1.983-2.854v.064c-.242.328-.15.815-.29 1.264a24.719 24.719 0 00-.8 3.74h-.3v.064c.109.1.086.057.109.255-.327.15-.163.462-.56.57l-.024.317H5.13c-.061-.05-.015-.023-.125-.063l-.05-.19a.385.385 0 00.274-.191h-.194c-.074.13-.154.364-.293.444-.038-.21.04-.097-.114-.19.2.69-.493 1.36-1.02 1.522v-.128a.478.478 0 00.21-.316c-.065-.057 0 0-.058-.064-.211.123-.234.064-.527.127l.01-.127a.703.703 0 00.211-.318c-.065-.057 0 0-.059-.063h-.13c-.027.25-.105.493-.228.712-.065-.057 0 0-.06-.063-.075-.152-.02-.27-.096-.442h-.129a1.61 1.61 0 01-.111.632l-.135.065v-.065c-.063-.118-.02-.453-.084-.57-.123.077-.114 0-.2.064h-.064c.074.095.13.202.169.316-.154-.023-.097-.04-.26 0 .089.158.182.16.108.318-.074.047-.065.038-.21.064-.058-.25 0-.483-.277-.633-.061-.05-.015-.023-.124-.063v.127c.099.084.07.04.114.19h-.064c-.073-.051-.105-.05-.255-.064-.196-.36-.453-.702-.56-1.142a.52.52 0 00.278-.253l.185.126a.71.71 0 00-.421-.442 2.011 2.011 0 01-.333.126v.127a.824.824 0 01.297.316 3.793 3.793 0 00-.586.065l-.05-.192c.137-.023.126-.015.2-.063-.21-.072-.21-.072-.236-.316h.259a2.39 2.39 0 00.158-.381H.421c-.096.198-.21.21-.332.126-.045-.068-.036-.06-.051-.19.21-.052.097.032.21-.126H.184v-.063H.118c-.067.04-.023.137-.07.063-.046-.074-.033-.061-.048-.19.249-.337-.082-.695.095-1.264.333-1.077.221-1.798.54-2.854.672-2.234 1.279-5.806 2.431-8.242l.049-.633.21-.126c.095-.194.058-.554.117-.698.09.061.124.226.185.127h.063c-.392-.632.44-1.705.502-2.346-.053-.107.615-1.85.744-2.156.257-.609.369-1.193.647-1.713.2-.371.084-.974.295-1.33.282-.48.906-2.255 1.066-2.982l.125.065v-.065c-.076-.21.588-1.07.701-1.585.228.013.36.087.384.063.124-.099.093-.054.147-.253h-.128c-.07.051-.02.024-.135.064v-.127h.194l.093-.381h.259c.034-.133.025-.122.078-.192.792-.695 1.743-1.431 3.121-1.077.516-.2.993-.622 1.475-.824.354-.145.496.078.843 0 .167-.038.388-.228.535-.253.211-.038.237.21.508.127.33-.097.725-.236.985-.192 1.083.19 2.172-.302 3.228.065.466.162.647.512.976.761.289.21.833.103 1.14.316.224.156.312.546.53.698l.197-.064c.053.047-.017.211.047.255.063.045.421.011.573.127.076.059.076.166.238.253.074.484.32.834.358 1.395zM.525 27.907c.105.085.095.11.19.064h.063v-.064H.525zm.122 2.664H.322l.011-.126a.746.746 0 00.337-.19l-.023.316zm-.048-1.077l-.011.127h.065v-.127H.6zm-.022 1.14a.84.84 0 01.253.064l-.01.126H.626v-.063c-.042-.068-.015-.02-.049-.129v.002zm.127-.824a.753.753 0 01.253.064V30H.689l.015-.19zm.483.445v.127c.1-.079.071-.03 0-.13v.003zm.105.316v.127h.128v-.064l-.128-.063zm.137-.95a.647.647 0 00.036.379.645.645 0 00-.036-.381v.002zm.181 1.013v.127h.129l.01-.127H1.61zm.293-.444v.128h.063c-.04-.114-.017-.065-.063-.13v.002zm.98-12.11l-.01.127h.065v-.127h-.055zm-.879 12.49c-.019.182-.07.088-.015.189.072.05.106.05.253.063v-.063a1.628 1.628 0 00-.238-.19zm.327-.064c.076.234-.013.3.23.381v-.065c-.047-.074-.043-.105-.047-.253l-.183-.063zm.297 1.205c-.07.211.025.097-.143.19v-.063c-.047-.066-.021-.017-.055-.127h.198zm.24-1.458a1.822 1.822 0 00-.107.569c.065.059 0 0 .059.065h.128l.021-.255c.078-.124.009-.263-.1-.38zm.605-.318c.103.071.061.113.13 0h-.13zm-.04 1.395c.158.093.074-.013.116.19-.057.065-.025.019-.076.128-.065-.059 0 0-.059-.063s-.02-.02-.055-.129c.057-.063.024-.016.074-.126zm.382-.76v.126h.128v-.064l-.128-.063zm-.03.38v.127h.065c-.042-.112-.019-.061-.065-.127zm.238-.57v.126h.066v-.127h-.066zm.249.126c-.074.2-.173.398-.242.632h.128v-.126a.501.501 0 00.114-.506zm.66-.19c.063.124.029.114-.02.253H4.85v-.126c.066-.066.034-.007.085-.127h-.002zm.499-1.458v.126h.065v-.126h-.065zm-.021.253a.799.799 0 00.046.255c.057-.066.026-.02.074-.129h.065c.07-.063-.059-.061-.059-.063-.063-.05-.016-.021-.126-.063zM8.375 2.732v.127h.065v-.127h-.065zM9.75 1.653l-.01.127h.194v-.127H9.75zm-.944 14.205v.126h.065v-.126h-.065zm.078-.19v.127h.055v-.127h-.055zm.476.506h.26c.267-.445 1.574-1.054 2.046-1.393 1.028-.765 1.954-1.686 2.965-2.474.358-.28.605-.757.982-1.014l.015-.19c.135-.025.127-.017.198-.063.961-1.016 2.148-3.174 1.718-4.757-.512.043-1.244-.387-2.055-.19-.675.165-1.054.555-1.732.698-.053-.196-.049-.185-.24-.255-.211.279-.976.45-1.084.633-.544.69-.502 1.675-.904 2.613-.053.12-.249.276-.289.38.015.105.028.21.042.317a88.27 88.27 0 01-1.066 2.98l-.112.633c-.253.596-.657 1.367-.744 2.082zm1.358-5.96l-.085.255h.066v-.129c.04-.044.094 0 .073-.126h-.054zM13.035.829c.063.053.017.023.124.064-.053-.051-.006-.022-.116-.064h-.008zm.33 30.692h.131v.063h-.132l.002-.063zm.844-.761c.078.103.036.07.183.126v-.063l-.183-.063zm1.1.824l.19.063v.063h-.07v.064c-.065-.057 0 0-.061-.064-.061-.063-.026-.01-.06-.126zm.373-.571c.06.052.017.023.124.063-.067-.05-.02-.021-.124-.063zm.77-.761c-.07.139-.064.093-.144.192h.128c.089-.177.127-.05.009-.192h.006zm.088-.316l-.011.126h.194v-.126h-.183zM18.906.26v.127c.1-.076.072-.026 0-.127zm.253.063V.45h.066V.323h-.066zm.21.508c.064.051.018.021.127.064-.054-.051-.008-.024-.118-.064h-.008zM17.282 30.19v.126h.066c-.034-.11-.01-.06-.057-.126h-.009zM19.56.895v.126h.194V.958L19.56.895zm-1.94 26.632h.13c-.085.101-.034.076-.13 0zm-.172 2.276c.046.063.021.017.055.127h-.066l.01-.127zm.185-.76l-.023.315h.066c.124-.054.05-.03.193 0l.015-.19a.843.843 0 01-.25-.12v-.006zm.06.95h.128c-.084.107-.032.084-.129.006v-.006zm4.406-27.514c.097.135.17.192.245.19.056-.063.025-.017.073-.126h-.128c-.074-.047-.06-.038-.19-.064zm.909 5.96c-.028.066-.055.127-.08.192h.193v-.065c-.048-.049-.063-.078-.113-.127zm.082-.252v.126h.063v-.126h-.063zm.24-1.459a.79.79 0 00.032.445.788.788 0 00-.032-.445zm.025.508v.127h.063l.011-.127h-.074zm-.031.443c.012.132 0 .122.048.191v-.065c.057-.063.023-.017.074-.126h-.122z"/><path d="M27.483 30.646l-.015.19h-.065c-.21-.061-.462.312-.919.19a7.307 7.307 0 01-1.505-.633c-.398-.21-.927-.21-1.327-.38.035-.153.048-.098.019-.254-.097-.042-.228-.163-.308-.19l-.266.063c-.18-.084-.135-.455-.278-.57-.421-.336-.71.115-.917-.698.135-.024.125-.015.198-.064-.366-.073-.402-.474-.653-.76.051-.121.082-.25.093-.38h-.194c-.386-.803-.537-1.945-.693-2.79-.08-.422.17-1.022.099-1.332-.445-1.943.575-5.918 1.226-7.673.116-.31.283-.51.382-.761.038-.21.073-.422.111-.632.066-.116.283-.251.352-.38.118-.21.047-.398.177-.632.211-.388.654-.877.873-1.265.318-.564.421-1.355 1.024-1.584.12-.076.114 0 .21-.064a.496.496 0 00.148-.252c.011-.074-.012-.08-.046-.255.221-.144.266-.293.422-.506.452-.437.936-.84 1.447-1.206.652-.455 1.476-.853 2.045-1.395.054.046.067.08.12.129.15-.466 1.93-1.16 2.295-1.265.26-.078.47.146.577.063h.063c-.065-.099-.065-.052-.113-.19 1.25.091 2.992-.543 4.514.127.537.236.955.759 1.406 1.08.14.098.31.083.438.189.181.15.162.377.29.442.08-.05.113-.048.264-.06.064.166.249.271.289.442l-.097.445c.044.15.194.122.23.379-.158.103-.16.093-.211.318.114.095.097.175.24.253.05-.055.087-.072.14-.126a.54.54 0 01-.175-.255h.193c.061.162.092.334.091.508.073.203.08.425.017.632l-.198.063c-.028.152.103.152.099.381h-.063v.064h-.129a.79.79 0 00-.548-.445v.063c.135.17-.03.156.04.318l.365.317c.048.13-.102.744-.013 1.015.089.272.367.59.449.888l-.027.379c.125.669.16 1.351.105 2.03-.025.326-.15.712-.137.95.061 1.243-.69 2.936-1.197 3.87-.186.336-.087.646-.266.95-.367.59-.7 1.2-.996 1.83-.538 1.173-1.686 2.364-2.454 3.358-.137.18-.15.405-.301.572-.51.56-.946.929-1.404 1.458-.457.529-.467.988-1.194 1.264v.129c.21 0 .094-.108.19.063h-.066c-.483.386-.94.932-1.575 1.14-.53.175-.823-.033-1.302.127-.265.09-.632.472-.879.508-.246.036-.337-.152-.71-.19zm-5.871-13.001c.063.053.017.023.124.065-.061-.046-.015-.017-.124-.059v-.006zm-.35 4.636v.127h.063c-.04-.112-.015-.061-.063-.127zm.476 4.82v.127h.194v-.064l-.194-.063zm.632 1.14l-.019.255h.129v-.128c-.055-.04-.055-.08-.116-.127h.006zm.854 1.522h.13v.129h-.128l-.002-.129zm4.66-5.2l.014-.189c.422.023.767.023.925-.253-.194.023-.143.127-.255-.063.152-.141.089-.192.344-.255.034-.13.025-.12.078-.19.21-.194.474-.21.622-.508-.135-.15-.07-.02-.047-.252.251-.222.329-.371.685-.508l-.046-.253h.194l.02-.253c.283-.133.068-.238.365-.571.1-.112.3-.152.407-.253.108-.101.356-.843.54-1.142.27-.445.695-1.042.957-1.522.037-.232.077-.466.115-.698.245-.564.48-1.195.633-1.584a3.764 3.764 0 00.132-1.777c-.05-.21-.17-.618-.075-.698-.47-.495-.96-.647-1.476-1.14l.076-.126c.18.08.374.123.571.126-.019-.32.026-.074.089-.318h-.063v-.063c-.29-.034-.645-.082-.818-.316.127-.043.26-.064.394-.064.327.134.664.24 1.01.316h.065v-.063a.658.658 0 01-.588-.508c-1.096 0-1.663.755-2.354 1.206-.955.632-1.311 1.475-1.874 2.529-1.153 2.173-2.501 6.632-1.405 9.195.259.038.514.101.76.19l.005.006zm-1.733 5.834c.093.148.082.15.308.192v-.128a1.034 1.034 0 00-.314-.064h.006zm.632.255l-.078.19h.323a.422.422 0 01.139-.126v-.064h-.384zm.957.19h.129v.063h-.13l.001-.063zm3.699-1.897l-.01.127h.058c-.038-.112-.014-.066-.06-.13l.012.003zm1.77-17.44c.063.053.017.024.124.066-.073-.057-.027-.027-.136-.07l.012.005zm-.036 1.963c.047.065.021.019.055.126h-.055v-.126zm.243-2.346c.08.104.036.072.183.127v-.064l-.183-.063zm-.023 1.143a.784.784 0 00.046.252h.065v-.126c-.04-.049-.052-.08-.107-.127h-.005zm1.382-7.166v.127h.129l.01-.127h-.139zm.449.063c.093.116.05.089.248.127v-.063h-.063v-.064h-.185zm.2.761c.063.05.017.023.124.063-.056-.05-.01-.023-.12-.063h-.004zm.864-.316c-.031-.112 0-.063-.055-.129v.129h.055zm.047.253c.08.103.035.07.183.126v-.063l-.184-.063zm1.053.76l-.01.127c.103-.076.074-.025.01-.126zm1.216 1.014V7.7h-.065c-.127.048.124.06.124.06.066-.067 0 0 .07-.06-.08-.053-.028-.026-.137-.066h.008zm.371 1.08c-.027.088.087.092.12.126.043-.068-.111-.112-.128-.127h.008zm-.038.507c.1.188.186.335.31.19-.194-.067-.152-.116-.318-.19h.008zm.515.888c.046.12.027.046-.013.19h-.066v-.064h-.065v-.063c.118-.04.066-.013.135-.063h.009zm-.078 1.896v.129h.065l.01-.129h-.075zm-.057 2.474l-.08.19h.128c-.021-.126-.015-.118-.057-.185l.009-.005zm-.137.951l.05.192h.063v-.066h.066v-.063h-.064c-.063-.046-.01-.02-.124-.059l.009-.004zm.297-2.22l-.01.127h.065v-.126h-.055zM73.5 6.484l.036-.38c-.185.089-.21.186-.236.439-.13-.028-.122-.017-.187-.068-.053-.116 0-.114.031-.316a.75.75 0 00-.335.12 5.116 5.116 0 01-.046-.192c.166-.074.345-.113.527-.116a1.068 1.068 0 00-.028-.381c-.01-.061.015-.044-.187-.067-.021-.226-.057-.285.107-.443-.08-.16.023-.074-.181-.13 0-.226.048-.16-.106-.256-.105-.05-.362.09-.533.18l-.019.19c-.23.048-.234.088-.347.246-.108-.043-.061-.013-.123-.066-.097-.054.076-.097.148-.187h-.07v-.063c-.038-.057-.134.118-.14.124h-.066c.147-.236.284-.369.185-.57v-.062c-.04-.057-.135.118-.14.124h-.132l.114-.506a.34.34 0 01.118.129h.064c-.1-.437-.411-.422-.633-.713-.288.312-.406 1.244-.34 1.518l-.2.059a1.982 1.982 0 00-.162-.32c-.06-.053-.014-.024-.124-.066v.063h-.065a.891.891 0 00.286.388l-.012.127a2.326 2.326 0 00-.557-.266c.058-.229.102-.461.131-.695a.738.738 0 00-.25-.07.668.668 0 00-.028-.381c-.032-.097-.21-.194-.358-.325v-.063c-.104.22-.17.454-.196.695a.648.648 0 01-.028-.381h-.194c-.118.318-.348.457-.466.815.115.14.259.25.422.327-.21.095-.333-.086-.497-.2-.148.21-.224.25-.411.244.07.156-.036.045.116.131a.486.486 0 01-.154.25c-.053.043-.152.08-.211.123h-.065c.025-.042.05-.084.078-.126h-.066v-.064a6.034 6.034 0 00-.525.753l-.073.76c-.177.239-.696 1.21-.765 1.897h-.192c.093.616-1.016 2.373-1.391 3.02-.272.468-.381.898-.651 1.385-.498.9-3.823 8.392-4.519 8.851.078.16-.023.074.182.131v.063a2.073 2.073 0 00-.336.122h-.065c-.04.125.021.083.053.129-.097.14-.181.13-.342.183-.048.196-.054.152-.029.316a.896.896 0 01-.247-.13l-.038.21c-.16.145-.332.277-.512.397-.055-.211-.099-.422-.145-.633l.013-.139c0-3.698.71-9.026 1.662-11.681.102-.283 0-.544.127-.843l.643-1.377c.14-.305-.125-.246.06-.448 0-.285.053-.774-.067-.942v-.074c-.236.145-.362.58-.45.855h-.066v.064h-.063c.038-.483.253-.75.124-1.086l.194-.078c-.06-.337-.177-.198-.261-.487-.055-.134-.051-.065.063-.193-.055-.26-.015-.19-.194-.175V5.9a.466.466 0 00-.26.084c-.328.055-.292.101-.387.346l-.194.014c.04-.16.105-.315.192-.457v-.253h-.13a1.79 1.79 0 01-.258.59v.064h-.065c.059-.199.156-.211.063-.384v-.127l-.194.015v.19h-.065v-.063h-.066c.064-.2.152-.333.129-.453-.04-.336-.156-.31-.327-.48l-.324.022-.063.133c-.108.253-.062.422-.192.647-.076.124-.35.278-.388.409l.065.183h-.065v.063l-.194.015a2.95 2.95 0 01.394-.891v-.38c-.103.093-.076.045-.128.199-.173-.062-.135-.112-.325-.165a2.748 2.748 0 01-.257.59v.063h-.13V5.37c-.05-.091-.136-.03-.195-.173-.177.099-.164.099-.194.329a2.261 2.261 0 00-.195-.175c-.146.302-.318.59-.515.862v.126c-.052-.07-.052-.101-.065-.246-.185.02-.095.05-.194.014-.166.1-.173.169-.194.394-.133-.016-.124 0-.194-.048h-.065c.04.194.013.154.13.242-.094.165-.027.104-.259.148.068.046.017.02.131.052-.148.422-.478.843-.643 1.25-.369.902-.512 1.699-.898 2.599-.484 1.131-1.114 2.383-1.67 3.48-.395.777-.783 2.107-1.415 2.636a.69.69 0 00.13.18c-.065.05-.258.102-.324.15-.086.146-.019.18 0 .317-.086.154-.356.158-.453.288-.267.363-.409.8-.773 1.071v.253c-.3.072-.357.169-.388.472-.223.061-.892.843-.97 1.022.024.061.045.122.068.186-.21.368-.767.339-.71.813-.112-.034-.064 0-.131-.055-.042.057-.086.211-.129.264v.063h-.128l-.12.327a3.079 3.079 0 01-.396.263c-.066-.21-.186-.48-.251-.727l.023-.089a4.346 4.346 0 010-.52c.03-.175.055-.35.023-.363.096-.67.236-1.335.422-1.987.35-1.488.421-2.98.87-4.34l-.038-.374c.07-.304.285-.814.35-1.075-.034-.122-.07-.243-.103-.365l.13-.02c-.01-.085-.019-.167-.027-.252l.124-.084-.097-.301c.034-.072.268-.15.304-.243l-.038-.373c.227-.59.518-1.306.725-1.896.09-.264 0-.422.13-.658.245-.449.614-.896.563-1.557l.194-.032a4.05 4.05 0 01.084-1.096.935.935 0 00-.113-.489v-.061c-.192.169.01.367-.287.421.089.25.019.108.21.156-.084.133-.168.137-.231.293a2.666 2.666 0 00-.464-.048c.03-.116 0-.063.05-.137.134-.036.05-.065.138.042.352-.297-.03-.738.21-1.054-.246-.468-.42-.305-.351-.895l-.066.012c-.295-.082-.472.323-.67.493.1.177.036.142.276.146v.061l-.065.01.013.127-.064.01v-.063a1.587 1.587 0 01-.466-.048c.043-.158.015-.108.112-.211v-.063c-.09.044-.173.1-.246.168-.066-.2 0-.177.02-.448l-.193.033a.842.842 0 01-.21.48v.064l-.066.01a1.263 1.263 0 01.348-.914l-.038-.375-.129.02.025.25-.194.033c.049.169.097.169.032.312-.063.105-.082 0-.181.158-.116-.02-.064 0-.135-.04 0-.084.162-.563.137-.596.08-.169.017-.104.244-.167l-.012-.126c-.194.025-.184-.015-.26.044-.183.105-.164.175-.295.303.072.14.034.1.148.167v.061l-.316.118c-.049.31-.196.354-.19.731-.32.137-.392.496-.581.734v.061h-.064c.019-.154.047-.307.085-.457l.193-.034c0-.072-.012-.13-.014-.181l-.1.07v.062h-.065c0-.088.013-.177.04-.26l-.259.043-.013-.126.123-.084v-.062c.059-.073.071.051.071.051.055.06.045.053.085.177.15.049.065-.017.118.068a.355.355 0 01.158-.3c-.112-.139-.038-.095-.272-.082.07-.158.128-.12.238-.232l.065-.01a.902.902 0 00-.225-.28s-.013-.125-.07-.051v.063c-.145.167-.06.038-.04.26-.185-.04-.293-.325-.385-.57h-.066l-.05.135c.014.047-.017.044.14.103-.027.405-.185.08-.277.491l-.129.024v-.064c-.059-.054-.025-.01-.078-.113.14-.091.175-.074.238-.232l.066-.01-.013-.125c-.506.16-.767.893-1.264 1.165 0 .064.014.125.02.188.108-.06.062-.023.123-.084l.192-.034v.063l-.125.084c-.078.156-.156.165-.25.106a1.62 1.62 0 00-.312.533c-.043.13.113.19.09.238-.038.084-.352.388-.407.514-.444 1.006-.598 1.99-1.005 3.029-1.361 3.481-1.8 7.979-2.558 12.249l.082.81c-.228 1.687.192 3.957.632 4.979.065.147.308.21.36.32 0 .129-.016.257-.027.386a1.996 1.996 0 001.096 1.085c.082-.012.036.036.122-.084.392.021.439.421.715.58.111.027.03-.085.194-.034.337-.021.467.16.632.339v.023c.32-.02.643.018.95.112l.453-.034v-.126h-.065v-.064c-.274.013-.173-.063-.322.089h-.131l.063-.26c.268 0 .457 0 .584.146.086-.04.048-.027.065-.067.095-.165-.017-.074.194-.141v.253c.074-.062.186-.14.257-.211.061.118.028.046 0 .19.186-.022.093-.051.194-.015.175-.118.066 0 .063-.194.48.147.534-.27 1.037-.268.044-.124.066-.254.063-.386a.364.364 0 01.131.116c.407-.175 1.15-1.213 1.475-1.568 1.444-1.521 3.002-3.007 4.196-4.746h.129c.249.53.443 3.828.963 4.215.388.285 1.054.439 1.237.917.14-.067.093-.061.194-.141.6.573 1.452.807 2.468.95a.45.45 0 01.042-.044c.01 0 .02.02.032.027l-.017.097a.893.893 0 00.082-.07h.021l.082-.128c.127.08.049 0 .02.243.193-.068.185-.09.282-.249.042.07.035.059.046.192a2.57 2.57 0 001.07-.36c.026.155.013.1-.025.252a.875.875 0 00.276-.179h.015a.592.592 0 01.12-.055c-.065.047-.027.028-.12.055h-.015l-.012.122h.259l.019-.19.181.131c.308-.303.474-.293.894-.554.573-.356 1.1-.93 1.618-1.363.055-.068.047-.06.083-.19h.193c-.014-.065-.031-.129-.046-.192.843-.346 2.285-2.468 2.976-3.372 2.137-2.792 4.101-9.077 5.94-12.19.25-.421.361-1.16.528-1.45.204-.323.388-.658.55-1.005.164-.409.063-.66.232-1.077.17-.364.575-1.01.406-1.367zm-25.018.558l-.012-.124.128-.021.013.124-.129.021zm.335-.942l-.012-.124.128-.021.013.124-.129.021zm-.048-.508c.164.124.013.137.21.093l.02.187h-.33a.95.95 0 01.1-.28zm-.162.98l.063-.01v-.064c.059.057.025.013.078.116-.008.006-.264.028-.143-.042h.002zm.02-1.718c.104.148.034.158-.033.323l-.063.01a.694.694 0 01.095-.333h.002zm-.018.824l-.129.022-.019-.188c.171.055.07-.025.146.166h.002zm-.175.856c.164.124.013.137.21.093l.02.187h-.33a.952.952 0 01.098-.28h.002zm-.162.98l.063-.01V7.44c.059.057.025.013.078.114-.009 0-.264.03-.143-.04h.002zm.02-1.72c.104.15.034.16-.03.325l-.066.01a.71.71 0 01.095-.335h.002zm-.806.456c.115.02.065 0 .134.04h-.063v.063h-.065l-.006-.103zm.467-.894h-.063v.063h-.065l-.013-.124c.114.034.072.015.141.061zm-.843 7.195h.066v-.063c.059.057.025.012.078.114-.007-.02-.262.01-.144-.06v.009zm.666-7.296l-.065.01v.064l-.065.01-.02-.187c.176.046.05-.043.15.094v.009zm-.18.158c.04.038.092-.013.077.114h-.065c-.061.06-.017.025-.122.084l-.013-.124c.107-.057.061-.021.122-.083v.009zm-.684 8.12s-.255.03-.135-.04h.064v-.063c.052.038.019-.006.071.095v.008zm.411-8.202c.026.014.133 0 .078.114-.076-.026-.213-.089-.078-.123v.009zm-.758 10.236H46.5v.063h-.065l-.013-.126c.123.035.072.014.142.054v.009zM42.08 27.81v.127h-.066v-.127h.066zm-.114.843a.69.69 0 01.135.18c-.215-.098-.129-.022-.135-.199v.02zm.141.508l-.012-.124.065-.01.013.124-.066.01zm1.83-22.933l.193-.032c-.105.055-.078.05-.194.013v.019zm.147-.211c-.03-.06-.057-.118-.084-.175l.128-.023.02.187-.064.01zm.188-.73l.194-.033c-.106.055-.078.05-.194.015v.019zM42.956 29.45c-.056-.038-.21-.067-.26-.103-.051-.036-.024-.017-.068-.12.158.028.312.078.457.147v.063l-.129.013zm1.56.556v.063l-.325-.037a.298.298 0 000-.045l.14-.038.185.057zM46.91 4.781h-.065v.06l-.063.013-.013-.126c.12.013.07-.004.141.034v.019zm-.31.179l.194-.034c-.025.143-.059.14.026.25v.062c-.186.023-.1-.027-.194.034l-.066.01a2.9 2.9 0 01.04-.347v.025zm-.014.51h-.064l-.012-.125c.059.047.025.011.076.106v.019zm0 .253l-.066.01v.061l-.065.013-.013-.126c.114.002.061-.017.133.023l.01.019zm-.31.179l.194-.034c-.026.143-.06.14.025.25v.062c-.185.023-.1-.027-.194.034l-.061-.015c.002-.106.011-.211.025-.316l.01.019zm-.013.51h-.065l-.013-.124c.055.046.015.002.068.105l.01.019zm-.697-.767v.19H45.5a6.446 6.446 0 01-.067-.184l.133-.006zm-1.49 24.657c.111.032.063 0 .128.053-.122-.057-.072-.034-.139-.078l.01.025zm.387-.092l.194.048a.666.666 0 010 .063c-.162-.07-.116-.042-.204-.137l.01.026zm1.75-.198c.113.033.065 0 .13.054-.122-.052-.074-.033-.14-.08l.01.026zm7.433-6.068v-.128c.052.06.025.014.065.122l-.065.006zm5.69-17.383v.19c-.05-.065-.042-.055-.065-.185l.065-.005zm-.588-1.22v.19l-.194-.049c.089-.19-.023-.099.188-.166l.006.025zm-2.392 23.157a.715.715 0 01.196.114c-.16-.046-.114-.017-.196-.114zm.455.346v-.127l.13.053v.063l-.13.011zm.196-.015l.323.038v.063c-.236-.002-.222.013-.33-.1h.007zm1.62.255c-.11-.031-.062 0-.128-.052.106.031.057.008.122.052h.007zm-.096.143c.107.043.063.013.122.066-.114-.044-.067-.015-.128-.066h.006zm1.148-.354h-.014.014a.679.679 0 01.116-.067c-.067.053-.033.03-.122.067h.006zm1.149-1.093c.112.031.063 0 .129.052-.118-.033-.07-.008-.135-.052h.006zm.13.421c.108.044.062.015.123.068-.114-.051-.068-.021-.129-.074l.007.006zm.195-.377v-.129h.063v.125l-.063.004zm.187.449h-.065l.013-.129h.063a.912.912 0 00-.017.123l.006.006zm6.506-22.087h-.065v-.063h-.066c.04-.09.092-.176.154-.253.053.118.007.118-.03.31l.007.006zm.124-.632c.095.082.24.124.106.255a.58.58 0 01-.112-.261l.006.006zm.14.573h.065v-.063c.044.065.02.015.05.127 0-.005-.25-.024-.122-.07l.006.006zm.501-.497h-.194c0-.042 0-.084.01-.126h.194l-.01.126zm.695-1.193h-.128c-.015-.063-.032-.126-.046-.19.107.043.063.013.124.066h.063l-.013.124zm.407-.183c-.147-.06-.105-.025-.181-.13l.188.067-.007.063zm.13.632l.032-.316c.112.107.104.093.1.318l-.131-.002zm.492.891c-.21-.092-.129-.02-.112-.193l.123.065-.011.128zm1.237-1.437v.063c-.044-.075-.042-.105-.04-.255h-.065a.456.456 0 00.023.445v.063a.9.9 0 01-.247-.132c.038-.129.028-.12.082-.188.064-.422.131-.192.302-.438a.422.422 0 01-.055.45V4.34zm.175 1.528v.063h-.063a.888.888 0 00.088-.253c.04.118.042.1-.031.199l.006-.009zm.896.78h.065l-.019.19s-.057.025-.059-.064h-.063l.076-.126zm-.078-1.208l-.013.127c-.114.038-.063.012-.135.06h-.063l.076-.123c-.3.134-.255.333-.371.501v.061h-.066c.068-.731.049-.54.338-.82h.259c-.032.194-.061.11-.025.203V5.44zm-.074 2.793v.065h-.066a.987.987 0 01.09-.253c.04.118.041.089-.024.196v-.008zm.377-.559c-.095.044-.084.02-.188-.067-.065-.06 0 0-.059-.066.146-.096.268-.223.359-.373a.561.561 0 01-.112.506zm.337-.82h-.065c-.053.11-.017.064-.076.127s-.019.023-.135.061v-.063h-.065l.101-.377c.112.082.097.126.24.193v.06zM71.32 29.006c.21-.052.097.032.21-.126 0-.082.228-.289.163-.445-.078-.082-.179-.21-.248-.126-.137.172-.163.543-.253.76h-.064v-.063c-.054-.13.06-.404.112-.632h-.13v-.063h-.064c-.07.21.023.097-.145.19l.02-.253c.256-.1.123-.102.212-.317a.925.925 0 01-.483-.444c.135-.023.124-.015.198-.063-.07-.135-.013-.175.028-.382h-.064v.063c-.057.08-.107.166-.147.255-.234.013-.127-.095-.211.127.318.25.388.662.17 1.142h-.128l.015-.192a.986.986 0 00.162-.442c-.158-.045-.11-.15-.19-.064a1.976 1.976 0 00-.029.38l-.52.063c-.026-.21-.133-.18-.171-.316l.095-.381c0-.026-.171-.148-.182-.19-.07-.327.23-.799-.116-1.016-.01.221-.07.437-.177.632v-.126c-.24-.356-.019-1.364.14-1.838a67.046 67.046 0 001.127-3.806c.247-.91.558-2.582 1.054-3.612a2.854 2.854 0 01-.013-.7c.285-.879.506-2.135.887-3.161.07-.337.137-.677.211-1.014.333-.807.632-1.785.906-2.6.043-.275.087-.55.127-.825.32-.862.813-1.953.933-2.916.135-.024.125-.015.199-.064-.123-.26.484-1.12.69-1.458.123.054.25.096.38.126.101-.817.906-1.359 1.475-1.521v.063c.066.06 0 0 .061.063-.16.106-.078.226-.164.445h.13c.184-.228.47-.192.675-.381.167-.154.152-.312.356-.443l-.012.19a4.936 4.936 0 00-.382.76c.072.156-.031.045.12.127.1-.274.211-.21.352-.38l.243-.573h.194l-.034.445c-.099.05-.19.114-.272.19a.514.514 0 01.18.19c-.1.051-.19.115-.273.189.089.031.172.075.249.129-.112.084-.076.04-.145.19h.259a2.704 2.704 0 01.048-.633c.137-.023.127-.015.198-.063.177-.175.078-.316.283-.316.421.379.552 1.011.661 1.521h.066a1.34 1.34 0 01.111-.632.453.453 0 01.264-.063v.063h.063c.013.126.025.253.036.38a1.264 1.264 0 00-.268.128c.262.114.422.08.422.442h.065c.06.066-.07.064-.07.064-.17.128-.162-.053-.278.255.192-.026.089-.106.19.063.101.169.055 1.054-.036 1.33-.105.305-.299.632-.392.89-.162.446-.158 1.097-.383 1.647-.704 1.72-1.12 4.049-1.798 5.834-.28.737-.21 1.59-.611 2.092.093.713-.538 2.938-.843 3.488l-.152 1.14c-.396 1.12-.645 2.477-1.108 3.552-.25.581-.211 1.138-.75 1.395-.083.053-.062.023-.2.063-.138.312-.357.4-.51.76h.064v.064c.232-.179.407-.421.504-.698h.065l-.03.382a.512.512 0 00-.147.253c-.577.295-.876.769-1.428.95.016-.183.067-.086.014-.19-.071.051-.02.024-.135.064a1.19 1.19 0 00-.031-.443h-.129c-.05.318-.11.453-.421.506l.01-.126a.452.452 0 00.211-.317h-.063v-.063h-.066c-.031.26-.027.289-.22.38v.063h-.079v-.127c.226-.261.403-.562.52-.887h-.065c-.097.145-.086.116-.139.127-.187-.279.023-.496.192-.825h-.063c-.129.173-.386.264-.487.443-.21.367-.137 1.452-.76 1.522v-.064h-.066l.025-.2zm9.19-22.318v-.129c-.19 0-.087-.06-.194 0h-.065c.06.053.014.024.124.066.072.05.025.02.135.063zm-.1.443c-.037-.211.04-.097-.113-.19l-.015.19h.129zm.12-1.585l.011-.127h-.13v.063l.12.064zm-.185-.95c-.158-.093-.075.012-.115-.19h.065V4.34c.11.04.061.013.124.066.154.08.047-.028.12.126-.132.023-.122.015-.194.063zm-.046-.256h-.126v-.126h.13l-.004.126zm-.257.826a1.47 1.47 0 00-.025-.508.68.68 0 00-.211.317h.063c.053.183-.004.118.173.191zm-.21.19V5.23h-.13l-.01.126h.14zm-.115.632l.034-.38h-.128l-.03.38h.124zm-.177-1.774h.064l.073-.127h-.063c0-.088-.061-.063-.061-.063l-.013.19zm-.059.76c0-.08.135-.117.015-.19 0-.067-.135.176-.143.19h.128zm-2.048-.25v-.127h-.065v.127h.065zm-.434-.255l.078-.19h-.129c.009.13 0 .12.044.188l.007.002zm-.48.381l.157-.381h-.065c-.14.198-.255.217-.1.38l.007.001zm-.844.95c.07-.138.063-.09.146-.189h-.194l-.076.127.124.063zm-2.13 22.89l.08-.19h-.129l-.01.127-.07.063h.129zM75.08 7.512l.076-.129c-.12.08-.076.129-.076.129zm-1.804 21.305c.027-.089-.084-.093-.12-.127-.05.06.103.108.12.127zm-.48-.508v-.127h-.064c.042.112.017.061.063.127zm.042-.571l.01-.127h-.053c.024.112 0 .063.045.127h-.002zm-.186.762v-.128h-.065c.044.112.019.063.067.128h-.002zm-.295-.381h-.129v-.063c.116.04.068.012.131.06l-.002.003zm-.706-.063v-.127h-.063c.042.11.017.062.065.127h-.002zm.658-11.288a.493.493 0 00-.04-.316.654.654 0 01-.154.316h.194zm-.167.508l.08-.19c-.192.072-.175.043-.078.19h-.002zm-.986 9.637c-.063-.05-.017-.02-.125-.063.064.05.017.023.127.063h-.002zm-.082-.632l.01-.126h-.065l-.01.126h.065zm.503-6.657v-.127h-.046c.025.11 0 .06.048.125l-.002.002zm-.666 7.102l.02-.253h-.066c-.013.221-.1.108.048.25l-.002.003zm.04-4.82l.01-.126H70.9v.126h.052zm-.984 6.21c0-.147 0-.178-.046-.254.002.152 0 .183.046.255zm.095-1.264l.01-.126h-.065v.126h.055zm-.314-.95c.21-.053.095.03.21-.127-.046-.065-.02-.018-.054-.128h-.065v.063c-.066.068-.057.06-.091.19v.002zm.025.506c.087-.152.142-.11.085-.253l-.051-.19h-.065l-.034.443h.065z"/></g><defs><clipPath id="clip0_801_903"><path fill="#fff" d="M0 0h81v31.948H0z"/></clipPath></defs></svg>